<svg width="150" height="151" viewBox="0 0 150 151" fill="none" xmlns="http://www.w3.org/2000/svg">
<circle cx="74.9998" cy="75.429" r="57.2034" fill="#D9D9D9" fill-opacity="0.3"/>
<circle cx="75" cy="75.4287" r="75" fill="#D9D9D9" fill-opacity="0.1"/>
<circle cx="75.1356" cy="75.5643" r="38.1356" fill="#D9D9D9"/>
<path d="M87.902 75.4602V76.81C87.902 77.485 87.7966 77.6115 87.1642 77.8646C86.5317 78.1177 86.4263 78.1177 86.089 78.2864C85.9034 78.3835 85.7552 78.5392 85.6674 78.7294C85.3933 79.341 85.1193 79.9948 84.8874 80.6487C84.8143 80.8387 84.8143 81.0492 84.8874 81.2392C85.0415 81.656 85.2174 82.0643 85.4144 82.4625C85.502 82.619 85.5331 82.8009 85.5024 82.9776C85.4717 83.1543 85.381 83.315 85.2457 83.4327L83.0111 85.6684C82.9029 85.8045 82.7477 85.8951 82.576 85.9225C82.4043 85.9498 82.2286 85.9118 82.0835 85.816C81.6341 85.5263 81.1108 85.3722 80.5762 85.3722C80.0416 85.3722 79.5183 85.5263 79.0689 85.816C78.7079 85.937 78.3804 86.1413 78.1131 86.4125C77.8457 86.6836 77.6459 87.014 77.5299 87.3768C77.2347 88.3681 77.1715 88.347 76.1174 88.347H73.5244C73.3272 88.3732 73.1274 88.325 72.9638 88.212C72.8001 88.0989 72.6844 87.9291 72.639 87.7353C72.5469 87.2335 72.3135 86.7683 71.9662 86.3947C71.6188 86.0211 71.172 85.7544 70.6784 85.6262C70.3066 85.4231 69.8898 85.3167 69.4662 85.3167C69.0426 85.3167 68.6258 85.4231 68.254 85.6262C67.5372 86.0269 67.3896 85.9636 66.7994 85.3731C66.2091 84.7825 65.5134 84.0654 64.8599 83.4327C64.6939 83.3139 64.581 83.1347 64.5455 82.9336C64.5101 82.7325 64.5548 82.5255 64.6701 82.3571C64.9288 81.9312 65.0657 81.4423 65.0657 80.9439C65.0657 80.4456 64.9288 79.9567 64.6701 79.5308C64.5368 79.1138 64.3009 78.7368 63.9842 78.4347C63.6674 78.1325 63.2799 77.9147 62.8571 77.8013C62.1403 77.6115 62.0771 77.4428 62.0771 76.6835C62.0771 75.9242 62.0771 74.8275 62.0771 73.8995C62.0399 73.6927 62.0854 73.4796 62.2037 73.3061C62.3219 73.1325 62.5036 73.0124 62.7095 72.9715C63.2031 72.9151 63.6638 72.6958 64.0188 72.3482C64.3739 72.0006 64.603 71.5446 64.6701 71.0521C64.6607 71.0324 64.6559 71.0108 64.6559 70.9889C64.6559 70.967 64.6607 70.9454 64.6701 70.9256C64.9119 70.5911 65.0421 70.1889 65.0421 69.7761C65.0421 69.3634 64.9119 68.9611 64.6701 68.6267C64.2274 67.8463 64.2907 67.7408 64.9231 67.1081L66.8205 65.1888C66.9499 65.0239 67.1359 64.9132 67.3425 64.8781C67.549 64.843 67.7613 64.8861 67.9378 64.999C68.3522 65.2569 68.8305 65.3936 69.3186 65.3936C69.8067 65.3936 70.285 65.2569 70.6995 64.999C71.1222 64.8722 71.5051 64.6387 71.8116 64.3211C72.118 64.0034 72.3376 63.6122 72.4492 63.1851C72.66 62.4469 72.8287 62.4047 73.6087 62.4047H76.5601C76.7456 62.383 76.9326 62.4285 77.0874 62.533C77.2421 62.6375 77.3542 62.794 77.4034 62.9742C77.5011 63.4804 77.7416 63.948 78.0965 64.3217C78.4515 64.6955 78.9059 64.9598 79.4062 65.0833C79.7738 65.2755 80.1825 65.3759 80.5973 65.3759C81.0121 65.3759 81.4207 65.2755 81.7884 65.0833C82.5262 64.6615 82.6527 64.7248 83.2641 65.3575L85.2036 67.2768C85.3597 67.3982 85.4655 67.573 85.5005 67.7677C85.5355 67.9624 85.4974 68.1631 85.3933 68.3314C85.0822 68.7367 84.9135 69.2334 84.9135 69.7445C84.9135 70.2555 85.0822 70.7523 85.3933 71.1576C85.4025 71.1993 85.4025 71.2425 85.3933 71.2842C85.5198 72.2122 86.1312 72.5918 86.9533 72.8449C87.7755 73.098 87.902 73.2034 87.902 74.1736V75.4602ZM67.7481 66.5597L67.0734 67.2135C66.1458 68.1415 66.1458 68.1626 66.6518 69.3226V69.4492C66.7403 69.6108 66.7868 69.7922 66.7868 69.9765C66.7868 70.1608 66.7403 70.3422 66.6518 70.5038C66.2723 71.3053 65.935 72.1278 65.6188 72.9715C65.5807 73.1508 65.4965 73.3171 65.3745 73.454C65.2525 73.5908 65.0969 73.6935 64.9231 73.7518L64.3118 73.9838C63.5739 74.2791 63.5739 74.2791 63.5739 75.0806C63.4652 75.5453 63.4652 76.0289 63.5739 76.4937C63.7847 76.8101 64.375 76.8944 64.7967 77.0421C64.9798 77.102 65.145 77.2067 65.2775 77.3467C65.41 77.4866 65.5056 77.6574 65.5556 77.8435C65.8221 78.6599 66.1462 79.4563 66.5253 80.2269C66.6392 80.4105 66.6996 80.6223 66.6996 80.8385C66.6996 81.0546 66.6392 81.2665 66.5253 81.4501C66.5253 81.5978 66.3989 81.7665 66.3145 81.9141C65.9983 82.6734 65.9772 82.6734 66.5675 83.264C67.1578 83.8545 67.1999 84.1076 67.5794 84.1709C67.9588 84.2342 68.4648 83.8967 68.8864 83.6858C69.0544 83.5935 69.2429 83.5451 69.4346 83.5451C69.6262 83.5451 69.8147 83.5935 69.9827 83.6858C70.6936 84.056 71.434 84.3664 72.1962 84.6138C72.4543 84.6781 72.692 84.8066 72.8873 84.9872C73.0826 85.1679 73.2292 85.3949 73.3136 85.6473C73.693 86.7651 73.7141 86.744 74.8947 86.744C76.0752 86.744 75.9909 86.744 76.3704 85.7528C76.3704 85.6262 76.3704 85.5208 76.518 85.3942C76.5724 85.2182 76.6738 85.0603 76.8112 84.9376C76.9487 84.815 77.117 84.7322 77.298 84.6982C78.0256 84.4747 78.7312 84.1853 79.4062 83.8334C79.6687 83.6593 79.9766 83.5664 80.2916 83.5664C80.6065 83.5664 80.9145 83.6593 81.177 83.8334L81.43 83.96C82.2522 84.2974 81.9781 84.3607 82.6105 83.728C83.243 83.0952 83.517 83.0741 83.5803 82.6734C83.6435 82.2727 83.243 81.7454 83.1165 81.2603C83.0214 80.9655 83.0214 80.6482 83.1165 80.3534C83.4312 79.4712 83.7901 78.6053 84.1917 77.7591C84.3414 77.4847 84.5502 77.247 84.803 77.0632C84.989 76.9607 85.1874 76.8828 85.3933 76.8312C86.1944 76.5148 86.2155 76.5148 86.1944 75.6711C86.1944 75.2071 86.3209 74.6166 86.1944 74.2791C86.0679 73.9416 85.3933 73.8784 84.9506 73.7307C84.7778 73.667 84.6226 73.5629 84.498 73.4272C84.3733 73.2915 84.2828 73.128 84.2339 72.9503C83.9387 72.1348 83.6014 71.3123 83.2219 70.4827C83.1236 70.3167 83.0717 70.1273 83.0717 69.9343C83.0717 69.7414 83.1236 69.5519 83.2219 69.3859C83.2219 69.2383 83.3695 69.0485 83.4538 68.8797C83.7911 68.1205 83.7912 68.0994 83.1798 67.5088C82.5684 66.9182 82.5473 66.6863 82.1678 66.6019C81.7884 66.5175 81.3246 66.8761 80.9029 67.087C80.7274 67.1793 80.5321 67.2276 80.3338 67.2276C80.1354 67.2276 79.94 67.1793 79.7645 67.087C78.9948 66.7008 78.1988 66.3696 77.3824 66.0957C77.1863 66.0551 77.0054 65.9606 76.8601 65.8227C76.7149 65.6848 76.611 65.5091 76.5601 65.3153L76.3493 64.8091C76.0542 64.0287 76.0542 64.0288 75.232 64.0288C74.7471 64.0288 74.1779 63.9022 73.8406 64.1342C73.5033 64.3662 73.419 64.9146 73.2714 65.3575C73.2102 65.5377 73.1048 65.6997 72.9649 65.8287C72.8249 65.9576 72.6549 66.0494 72.4703 66.0957C71.6884 66.3263 70.9324 66.6373 70.2146 67.0237C69.9917 67.1576 69.7367 67.2283 69.4768 67.2283C69.2168 67.2283 68.9618 67.1576 68.7389 67.0237C68.4188 66.8482 68.0878 66.6932 67.7481 66.5597Z" fill="#0F6895"/>
<path d="M77.9302 91.9328C77.6966 91.776 77.4714 91.6071 77.2556 91.4266C77.1771 91.372 77.1104 91.3022 77.0594 91.2214C77.0083 91.1405 76.9738 91.0503 76.9581 90.956C76.9424 90.8617 76.9457 90.7651 76.9678 90.6721C76.9899 90.579 77.0305 90.4914 77.087 90.4142C77.1378 90.3317 77.2054 90.2607 77.2853 90.2058C77.3652 90.1509 77.4557 90.1133 77.5509 90.0954C77.6462 90.0775 77.7442 90.0798 77.8385 90.102C77.9329 90.1242 78.0216 90.1659 78.0989 90.2244C78.9211 90.7939 79.7433 91.3844 80.5444 91.9961C80.64 92.0596 80.7185 92.1458 80.7728 92.247C80.827 92.3482 80.8555 92.4612 80.8555 92.5761C80.8555 92.6909 80.827 92.804 80.7728 92.9052C80.7185 93.0064 80.64 93.0926 80.5444 93.1561C79.8065 93.8099 79.0476 94.4427 78.2886 95.0754C78.2196 95.1488 78.1363 95.2073 78.0439 95.2473C77.9514 95.2873 77.8518 95.308 77.751 95.308C77.6503 95.308 77.5506 95.2873 77.4582 95.2473C77.3657 95.2073 77.2824 95.1488 77.2134 95.0754C77.1022 94.9145 77.0537 94.7184 77.077 94.5241C77.1003 94.3299 77.1938 94.1509 77.3399 94.0208L77.7826 93.6201C76.8761 93.6201 76.0539 93.6201 75.2107 93.4936C70.156 93.0626 65.3966 90.9301 61.7095 87.4443C58.0223 83.9584 55.6251 79.325 54.9092 74.3005C54.7795 73.2857 54.7021 72.265 54.6772 71.2423C54.6592 71.136 54.664 71.027 54.6913 70.9227C54.7186 70.8184 54.7677 70.7211 54.8356 70.6373C54.9034 70.5535 54.9883 70.4851 55.0845 70.4367C55.1808 70.3883 55.2863 70.3609 55.394 70.3564C55.8367 70.3564 56.1319 70.6939 56.153 71.2212C56.1455 74.5927 56.9787 77.9129 58.5773 80.881C60.1278 83.8806 62.3894 86.4544 65.164 88.3773C67.9387 90.3003 71.142 91.5138 74.4939 91.9117C75.5901 92.0804 76.7285 92.0804 77.8459 92.1648L77.9302 91.9328Z" fill="#0F6895"/>
<path d="M74.283 58.9041L74.8733 59.4524C74.9434 59.5212 74.9991 59.6032 75.0371 59.6937C75.0751 59.7843 75.0947 59.8815 75.0947 59.9797C75.0947 60.0779 75.0751 60.1752 75.0371 60.2657C74.9991 60.3562 74.9434 60.4383 74.8733 60.507C74.8064 60.5765 74.7262 60.6318 74.6374 60.6696C74.5487 60.7074 74.4532 60.7269 74.3567 60.7269C74.2603 60.7269 74.1649 60.7074 74.0761 60.6696C73.9874 60.6318 73.9071 60.5765 73.8402 60.507C73.0813 59.8743 72.3435 59.2204 71.6267 58.5455C71.5267 58.4804 71.4444 58.3913 71.3875 58.2863C71.3306 58.1814 71.3008 58.0638 71.3008 57.9444C71.3008 57.825 71.3306 57.7075 71.3875 57.6025C71.4444 57.4975 71.5267 57.4084 71.6267 57.3433L74.03 55.6982C74.1082 55.6347 74.199 55.5885 74.2963 55.5624C74.3936 55.5364 74.4953 55.5312 74.5947 55.5471C74.6942 55.563 74.7892 55.5997 74.8735 55.6548C74.9578 55.7099 75.0295 55.7822 75.0841 55.8669C75.1425 55.949 75.1834 56.0422 75.2045 56.1407C75.2255 56.2392 75.2262 56.341 75.2065 56.4398C75.1867 56.5386 75.147 56.6323 75.0897 56.7151C75.0324 56.798 74.9587 56.8682 74.8733 56.9215L74.4516 57.4066C75.2106 57.512 75.9063 57.5964 76.5598 57.7229C80.4169 58.3561 84.0379 59.9988 87.0555 62.4843C90.073 64.9698 92.3796 68.2097 93.7413 71.8752C95.0138 75.0955 95.4841 78.5773 95.1115 82.0201C95.1115 82.6106 94.7743 82.9059 94.3105 82.8848C93.8467 82.8637 93.5937 82.5052 93.6359 81.9146C93.9345 79.2471 93.676 76.5467 92.8769 73.9843C91.8586 70.388 89.8864 67.1344 87.1696 64.5686C84.4528 62.0028 81.0926 60.2203 77.4452 59.4102C76.3912 59.1361 75.3371 59.0306 74.2619 58.8619L74.283 58.9041Z" fill="#0F6895"/>
<path d="M66.6728 59.7474C66.6769 61.2 66.2502 62.6211 65.4467 63.8309C64.6431 65.0407 63.4987 65.9847 62.1585 66.5435C60.8183 67.1022 59.3426 67.2506 57.9181 66.9698C56.4936 66.689 55.1844 65.9916 54.1563 64.966C53.1282 63.9403 52.4273 62.6325 52.1425 61.2082C51.8577 59.7838 52.0018 58.307 52.5564 56.9646C53.1111 55.6222 54.0514 54.4746 55.2583 53.6672C56.4652 52.8598 57.8845 52.4287 59.3364 52.4287C60.2988 52.426 61.2523 52.6132 62.1423 52.9798C63.0323 53.3463 63.8412 53.885 64.5227 54.5649C65.2042 55.2447 65.745 56.0525 66.1139 56.9418C66.4829 57.8311 66.6728 58.7845 66.6728 59.7474ZM65.197 59.7474C65.2095 58.5869 64.8775 57.4489 64.2431 56.4773C63.6086 55.5057 62.7002 54.7444 61.633 54.2897C60.5657 53.835 59.3875 53.7074 58.2477 53.923C57.1079 54.1387 56.0577 54.6879 55.2301 55.5011C54.4025 56.3143 53.8347 57.3549 53.5987 58.4912C53.3626 59.6274 53.4689 60.8082 53.9041 61.884C54.3393 62.9598 55.0838 63.8821 56.0433 64.5343C57.0029 65.1865 58.1342 65.5391 59.2942 65.5475C60.8342 65.5589 62.3167 64.9635 63.4214 63.89C64.526 62.8164 65.1638 61.351 65.197 59.8107V59.7474Z" fill="#0F6895"/>
<path d="M90.6847 83.749C92.1357 83.7532 93.5528 84.1877 94.757 84.9977C95.9611 85.8077 96.8981 86.9567 97.4495 88.2994C98.001 89.6422 98.142 91.1184 97.8549 92.5413C97.5677 93.9643 96.8652 95.2701 95.8363 96.2936C94.8073 97.3171 93.4981 98.0124 92.0742 98.2915C90.6502 98.5707 89.1756 98.4211 87.8366 97.8617C86.4977 97.3023 85.3545 96.3583 84.5519 95.1489C83.7492 93.9396 83.323 92.5193 83.3272 91.0677C83.3383 89.1228 84.1184 87.2613 85.497 85.89C86.8756 84.5187 88.7407 83.749 90.6847 83.749ZM84.824 91.152C84.8199 92.3066 85.1578 93.4365 85.795 94.3991C86.4323 95.3617 87.3404 96.1138 88.4046 96.5604C89.4688 97.0071 90.6414 97.1282 91.7744 96.9086C92.9074 96.6889 93.95 96.1384 94.7704 95.3264C95.5908 94.5144 96.1524 93.4774 96.3841 92.3463C96.6159 91.2152 96.5075 90.0408 96.0726 88.9714C95.6377 87.9019 94.8959 86.9853 93.9407 86.3374C92.9855 85.6894 91.8598 85.3392 90.7057 85.3309C89.9371 85.3253 89.175 85.4716 88.463 85.7614C87.751 86.0512 87.1032 86.4788 86.5567 87.0196C86.0103 87.5604 85.5759 88.2039 85.2785 88.913C84.9812 89.6221 84.8268 90.383 84.824 91.152Z" fill="#0F6895"/>
<path d="M67.6637 75.3971C67.6679 73.9395 68.1046 72.5159 68.9184 71.3069C69.7322 70.0979 70.8865 69.1578 72.235 68.6058C73.5834 68.0538 75.0653 67.9148 76.4928 68.2064C77.9203 68.4979 79.2292 69.2069 80.2534 70.2435C81.2777 71.2801 81.9714 72.5977 82.2464 74.0291C82.5214 75.4605 82.3654 76.9414 81.7982 78.284C81.231 79.6266 80.2782 80.7706 79.0604 81.5708C77.8427 82.3711 76.4148 82.7916 74.9579 82.779C73.9945 82.7735 73.0416 82.5782 72.1536 82.2042C71.2657 81.8302 70.4599 81.285 69.7826 80.5995C69.1053 79.914 68.5695 79.1017 68.206 78.2091C67.8424 77.3165 67.6581 76.361 67.6637 75.3971ZM75.0211 69.5548C73.8611 69.5506 72.726 69.891 71.7594 70.5327C70.7929 71.1744 70.0384 72.0887 69.5916 73.1597C69.1448 74.2307 69.0257 75.4103 69.2494 76.5491C69.4732 77.6879 70.0297 78.7346 70.8485 79.5567C71.6673 80.3788 72.7115 80.9393 73.8489 81.1673C74.9864 81.3952 76.1658 81.2804 77.238 80.8372C78.3101 80.3941 79.2266 79.6426 79.8716 78.6779C80.5165 77.7132 80.8608 76.5787 80.8608 75.4182C80.8608 73.8668 80.2462 72.3786 79.1517 71.2796C78.0572 70.1806 76.5718 69.5604 75.0211 69.5548Z" fill="#0F6895"/>
<path d="M60.1164 55.8669C60.4982 55.9623 60.8546 56.1401 61.1605 56.3878C61.4664 56.6356 61.7145 56.9473 61.8872 57.3011C62.1191 57.7862 62.0348 58.1869 61.6553 58.3978C61.2758 58.6088 60.8542 58.3978 60.5802 57.9971C60.4951 57.8275 60.3752 57.6778 60.2284 57.5577C60.0816 57.4376 59.9111 57.3498 59.7281 57.3001C59.5451 57.2503 59.3537 57.2397 59.1663 57.269C58.9789 57.2982 58.7998 57.3667 58.6407 57.4698C58.529 57.5515 58.4358 57.6556 58.3668 57.7754C58.2978 57.8953 58.2546 58.0283 58.2401 58.1658C58.265 58.294 58.32 58.4145 58.4007 58.5172C58.4813 58.6199 58.5853 58.7019 58.7039 58.7564C59.0904 58.8981 59.4845 59.0178 59.8845 59.1149C60.4134 59.2664 60.9175 59.4937 61.3812 59.7899C61.6496 59.9991 61.8633 60.2702 62.0042 60.58C62.1451 60.8898 62.209 61.2291 62.1903 61.569C62.1717 61.9088 62.0711 62.2391 61.8971 62.5317C61.7232 62.8242 61.4811 63.0702 61.1915 63.2488C60.8753 63.4387 60.4958 63.5652 60.1374 63.7339C59.9899 64.4299 59.8001 64.683 59.3363 64.662C58.8725 64.6409 58.6617 64.3878 58.5774 63.6707C58.1767 63.5815 57.8007 63.4048 57.4764 63.1532C57.152 62.9016 56.8872 62.5814 56.7011 62.2154C56.6261 62.0535 56.5696 61.8837 56.5325 61.7092C56.504 61.6191 56.4947 61.5241 56.5052 61.4303C56.5156 61.3364 56.5457 61.2458 56.5934 61.1643C56.641 61.0828 56.7053 61.0122 56.782 60.9571C56.8587 60.902 56.946 60.8636 57.0384 60.8444C57.1212 60.8111 57.21 60.7951 57.2993 60.7974C57.3885 60.7996 57.4763 60.8202 57.5573 60.8577C57.6383 60.8953 57.7107 60.949 57.7701 61.0157C57.8296 61.0823 57.8747 61.1604 57.9028 61.2452C57.9916 61.4673 58.1271 61.6676 58.3002 61.8327C58.4733 61.9977 58.6798 62.1235 58.9058 62.2016C59.1319 62.2796 59.372 62.3081 59.61 62.285C59.848 62.2619 60.0782 62.1878 60.285 62.0677C60.4027 62.0174 60.5029 61.9335 60.5734 61.8267C60.6438 61.7198 60.6815 61.5946 60.6815 61.4666C60.6815 61.3386 60.6438 61.2134 60.5734 61.1065C60.5029 60.9997 60.4027 60.9159 60.285 60.8655C59.9722 60.7024 59.6389 60.5818 59.2942 60.507C58.9147 60.3804 58.4931 60.3171 58.1136 60.1695C57.691 60.0316 57.3227 59.7636 57.0614 59.4038C56.8001 59.0439 56.6593 58.6106 56.659 58.1658C56.6603 57.7113 56.7976 57.2676 57.053 56.8917C57.3085 56.5159 57.6705 56.2251 58.0925 56.0567C58.3666 56.0567 58.5563 55.8669 58.5774 55.5084C58.5796 55.4167 58.601 55.3265 58.6403 55.2437C58.6796 55.1608 58.7358 55.0872 58.8054 55.0275C58.875 54.9678 58.9564 54.9235 59.0442 54.8973C59.1321 54.8711 59.2244 54.8638 59.3153 54.8756C59.4056 54.8728 59.4956 54.8881 59.5799 54.9208C59.6642 54.9534 59.7411 55.0027 59.806 55.0657C59.8709 55.1286 59.9225 55.204 59.9577 55.2873C59.9929 55.3706 60.011 55.4601 60.0109 55.5505C60.0109 55.5505 60.0953 55.7404 60.1164 55.8669Z" fill="#0F6895"/>
<path d="M91.4224 95.0327C91.443 95.1443 91.443 95.2586 91.4224 95.3702C91.4012 95.5513 91.3098 95.7168 91.1679 95.8312C91.026 95.9456 90.8449 95.9996 90.6635 95.9818C90.5733 95.9881 90.4828 95.9749 90.3981 95.9432C90.3134 95.9115 90.2365 95.862 90.1726 95.798C90.1087 95.7341 90.0592 95.6571 90.0275 95.5724C89.9958 95.4877 89.9826 95.3972 89.9889 95.3069C89.99 95.2052 89.9544 95.1065 89.8885 95.029C89.8226 94.9514 89.731 94.9004 89.6305 94.8851C89.2191 94.761 88.8454 94.5358 88.5434 94.23C88.2415 93.9242 88.0209 93.5476 87.9018 93.1345C87.8636 93.0417 87.8447 92.9421 87.8463 92.8417C87.8479 92.7413 87.8699 92.6423 87.9111 92.5508C87.9522 92.4592 88.0115 92.377 88.0855 92.3092C88.1595 92.2414 88.2465 92.1894 88.3412 92.1563C88.436 92.1233 88.5365 92.1099 88.6366 92.1171C88.7367 92.1242 88.8342 92.1517 88.9233 92.1978C89.0124 92.244 89.0912 92.3079 89.1547 92.3855C89.2183 92.4631 89.2655 92.553 89.2932 92.6494C89.4019 92.8733 89.5587 93.0702 89.7525 93.2263C89.9462 93.3823 90.1721 93.4936 90.4139 93.552C90.6557 93.6105 90.9074 93.6147 91.151 93.5644C91.3946 93.5141 91.6241 93.4105 91.8229 93.2611C91.91 93.2059 91.9818 93.1296 92.0315 93.0392C92.0812 92.9489 92.1072 92.8475 92.1072 92.7443C92.1072 92.6412 92.0812 92.5398 92.0315 92.4494C91.9818 92.3591 91.91 92.2828 91.8229 92.2276C91.5183 92.0578 91.1921 91.9301 90.8532 91.848C90.4105 91.7003 89.9467 91.637 89.5251 91.4683C89.1137 91.3244 88.757 91.0565 88.5041 90.7015C88.2511 90.3465 88.1144 89.9217 88.1126 89.4857C88.0828 89.0361 88.1977 88.5887 88.4405 88.2092C88.6833 87.8296 89.0412 87.5379 89.4618 87.3766L89.9678 87.1657C90.0732 86.4275 90.284 86.1533 90.7478 86.1533C91.2116 86.1533 91.4435 86.4486 91.5067 87.1657C91.917 87.2683 92.298 87.4645 92.6198 87.7389C92.9417 88.0133 93.1956 88.3585 93.3619 88.7475C93.437 88.884 93.4592 89.0433 93.4242 89.1951C93.3892 89.3469 93.2995 89.4804 93.1722 89.5701C92.9291 89.7074 92.6446 89.7523 92.3711 89.6966C92.2024 89.6966 92.0548 89.4224 91.9494 89.2326C91.8564 89.0735 91.7322 88.9349 91.5843 88.8249C91.4365 88.7149 91.268 88.6359 91.0889 88.5926C90.9098 88.5493 90.7238 88.5425 90.542 88.5728C90.3603 88.603 90.1865 88.6696 90.0311 88.7686C89.9038 88.8212 89.795 88.9104 89.7184 89.025C89.6418 89.1395 89.601 89.2741 89.601 89.4119C89.601 89.5497 89.6418 89.6844 89.7184 89.7989C89.795 89.9134 89.9038 90.0026 90.0311 90.0552C90.3251 90.1716 90.6283 90.2633 90.9376 90.3294C91.4442 90.4607 91.938 90.6372 92.4132 90.8567C92.7754 91.0381 93.0777 91.3201 93.2838 91.669C93.49 92.0178 93.5913 92.4186 93.5758 92.8235C93.5602 93.2285 93.4283 93.6203 93.196 93.9523C92.9637 94.2842 92.6407 94.5421 92.2657 94.6953C91.9706 94.8429 91.6965 94.9273 91.4224 95.0327Z" fill="#0F6895"/>
</svg>
