<svg width="150" height="150" viewBox="0 0 150 150" fill="none" xmlns="http://www.w3.org/2000/svg">
<circle cx="74.9998" cy="75.0003" r="57.2034" fill="#D9D9D9" fill-opacity="0.3"/>
<circle cx="75" cy="75" r="75" fill="#D9D9D9" fill-opacity="0.1"/>
<circle cx="75.1356" cy="75.1356" r="38.1356" fill="#D9D9D9"/>
<path d="M74.1892 85.1607V81.3563C73.0753 81.5328 72.8024 80.8464 72.6888 80.1601C72.5751 79.4737 71.6658 79.258 71.0065 78.9639C71.0065 78.9639 70.7564 78.9639 70.6427 78.9639C70.3209 79.0814 70.0093 79.2191 69.7106 79.3757C69.2105 79.6306 68.7103 79.6894 68.3238 79.3757L65.3002 81.9838C66.023 82.7754 66.5158 83.7046 66.7372 84.694C66.9587 85.6833 66.9025 86.704 66.5733 87.6708C66.102 89.1541 65.0081 90.4332 63.5042 91.2594C62.0236 92.116 60.2339 92.482 58.465 92.2897C56.6962 92.0975 55.0676 91.3601 53.8796 90.2135C52.6916 89.0669 52.0242 87.5884 52.0006 86.0508C51.9771 84.5131 52.5988 83.0199 53.7513 81.8466C54.9851 80.5692 56.7444 79.7536 58.6602 79.5708C60.576 79.388 62.4994 79.8522 64.0271 80.866L67.028 78.2579C66.9429 78.1746 66.8517 78.096 66.7552 78.0226C66.6506 77.9603 66.5619 77.8802 66.4945 77.7873C66.4271 77.6944 66.3825 77.5905 66.3633 77.4822C66.3442 77.3738 66.3509 77.2632 66.3831 77.1572C66.4153 77.0511 66.4723 76.9519 66.5506 76.8656C66.5506 76.8656 66.5506 76.6695 66.7097 76.6106C67.4145 75.9243 67.028 75.2772 66.7097 74.6496C66.6173 74.53 66.4813 74.4403 66.3232 74.3947L65.1865 74.0809C64.9681 74.0391 64.7745 73.9309 64.6409 73.7761C64.5074 73.6213 64.4428 73.4302 64.459 73.2377V71.2767C64.4369 71.0861 64.4964 70.8952 64.6262 70.7399C64.7561 70.5846 64.9472 70.4756 65.1638 70.4335C65.6185 70.3158 66.2778 70.2766 66.4824 70.002C66.6104 69.5777 66.6104 69.1321 66.4824 68.7078C66.4824 68.2175 66.346 67.7272 66.346 67.237C66.346 66.7467 66.4824 66.5702 66.4824 66.2173C66.4824 64.2562 66.4824 62.158 66.4824 60.1185C66.4824 59.3929 66.7324 59.1968 67.5736 59.1772H72.416C73.1435 59.1772 73.4163 59.4125 73.4163 60.0401C73.4163 61.0598 73.4163 62.0011 73.4163 63.0992H76.4627C76.4627 62.962 76.4627 62.7855 76.4627 62.609V56.1573C76.4627 55.3729 76.7127 55.1768 77.6448 55.1768H82.1917C83.1465 55.1768 83.3738 55.3728 83.3738 56.1965C83.3738 59.4518 83.3738 62.707 83.3738 66.0015C83.3738 67.2174 83.3738 68.4528 83.3738 69.6687C83.3609 69.732 83.3632 69.797 83.3806 69.8595C83.398 69.9221 83.43 69.9809 83.4748 70.0323C83.5195 70.0838 83.576 70.1268 83.6407 70.1587C83.7055 70.1906 83.7771 70.2107 83.8512 70.2177C85.6927 70.708 85.4881 70.5903 85.4881 72.1788V73.375C85.5049 73.5418 85.4523 73.7083 85.3399 73.8448C85.2275 73.9813 85.0624 74.0789 84.8743 74.1201C84.7389 74.1799 84.5929 74.2196 84.4423 74.2378C83.442 74.2378 83.0328 74.9046 82.8055 75.6301C82.7479 75.7629 82.7479 75.9092 82.8055 76.042C82.9019 76.2771 83.0317 76.5011 83.192 76.7087C83.6012 77.2774 83.7148 77.8069 83.0101 78.2187L86.1474 80.9445C87.6353 79.9587 89.5033 79.4998 91.3701 79.6615C93.2369 79.8232 94.9618 80.5933 96.1928 81.8146C97.4238 83.0359 98.0681 84.6164 97.9943 86.2335C97.9205 87.8506 97.134 89.3825 95.7955 90.5165C94.4569 91.6505 92.6671 92.3011 90.7914 92.3357C88.9156 92.3702 87.0953 91.786 85.7018 90.7024C84.3084 89.6187 83.4469 88.1172 83.2931 86.5042C83.1393 84.8913 83.7048 83.2885 84.8743 82.023L81.8279 79.2776C81.305 79.964 80.6003 79.8071 79.9864 79.3953C79.3726 78.9835 78.4633 79.1796 77.713 79.3953C77.713 79.3953 77.5539 79.5718 77.5084 79.6698C77.3863 79.9108 77.2874 80.16 77.2129 80.415C77.0537 81.0425 76.7127 81.474 75.8261 81.2975V85.2195C77.1967 85.3598 78.495 85.8265 79.5755 86.5673C80.6561 87.3081 81.4762 88.2937 81.944 89.4138C82.4118 90.5339 82.5089 91.7443 82.2244 92.9093C81.9398 94.0743 81.2849 95.148 80.333 96.0101C79.381 96.8722 78.1696 97.4886 76.8344 97.7904C75.4992 98.0922 74.093 98.0674 72.7733 97.7188C71.4535 97.3702 70.2723 96.7116 69.362 95.8166C68.4517 94.9217 67.8482 93.8258 67.6191 92.6518C67.4622 91.7857 67.509 90.9013 67.7568 90.0512C68.0046 89.2011 68.4483 88.4027 69.0614 87.7037C69.6745 87.0046 70.4445 86.4192 71.3255 85.9823C72.2065 85.5454 73.1804 85.266 74.1892 85.1607ZM80.8503 66.2957C80.6301 66.365 80.4172 66.4502 80.2138 66.5506C79.9035 66.7959 79.4979 66.932 79.0771 66.932C78.6562 66.932 78.2506 66.7959 77.9404 66.5506C77.691 66.3964 77.4027 66.2955 77.0992 66.2565C76.8151 66.2151 76.5531 66.0985 76.3494 65.9228C76.1456 65.7471 76.0104 65.521 75.9625 65.276C75.6442 64.3151 75.6215 64.3151 74.4848 64.4131C74.3484 64.4131 74.0983 64.5504 74.0983 64.6484C73.9164 65.727 73.098 66.1388 72.0067 66.6095C71.6322 66.7938 71.2047 66.8824 70.774 66.8651C70.3433 66.8477 69.9272 66.7251 69.5742 66.5114C69.5742 66.5114 69.4378 66.5114 69.3696 66.5114C69.1894 66.4817 69.0042 66.4817 68.824 66.5114C68.6648 66.5114 68.5739 66.7467 68.4148 66.8448C68.3379 66.8771 68.2709 66.9244 68.2192 66.9831C68.1675 67.0418 68.1325 67.1102 68.117 67.1827C68.1015 67.2552 68.106 67.3298 68.1301 67.4006C68.1541 67.4713 68.1972 67.5362 68.2556 67.59C68.5609 67.8875 68.7294 68.2712 68.7294 68.6685C68.7294 69.0659 68.5609 69.4495 68.2556 69.7471C68.1915 70.1869 67.9566 70.5949 67.5892 70.9047C67.2217 71.2146 66.7434 71.4079 66.2323 71.4532C66.1489 71.4737 66.0725 71.5112 66.0092 71.5623C65.946 71.6135 65.8977 71.6769 65.8685 71.7473C65.7094 72.669 65.8686 72.7867 66.7779 73.0612H67.1189C67.332 73.1053 67.5262 73.2005 67.6791 73.3358C67.832 73.4712 67.9373 73.6411 67.9828 73.826C68.1424 74.2504 68.3401 74.6635 68.5739 75.0615C68.6971 75.2176 68.7629 75.4021 68.7629 75.5909C68.7629 75.7798 68.6971 75.9642 68.5739 76.1204C68.3693 76.4538 68.1874 76.7871 67.9601 77.1793C68.135 77.2643 68.2894 77.3775 68.4148 77.5127C68.4699 77.6186 68.5543 77.7111 68.6607 77.7821C68.7671 77.8531 68.8921 77.9004 69.0247 77.9198C69.1573 77.9392 69.2934 77.93 69.421 77.8933C69.5486 77.8565 69.6637 77.7931 69.7561 77.7088C70.0386 77.4937 70.4024 77.375 70.7791 77.375C71.1559 77.375 71.5197 77.4937 71.8021 77.7088H72.0067C72.5318 77.7573 73.0209 77.9619 73.3901 78.2875C73.7593 78.6132 73.9856 79.0395 74.0301 79.4933C74.0546 79.5574 74.0962 79.6156 74.1514 79.6632C74.2067 79.7109 74.2742 79.7468 74.3484 79.7679C75.326 79.9444 75.5988 79.7679 75.8943 78.9835C75.9259 78.8685 75.9717 78.7567 76.0307 78.6501C76.2414 78.3962 76.5032 78.177 76.8036 78.003C77.3224 77.7553 77.8714 77.558 78.4405 77.4147C78.7506 77.3264 79.0853 77.3264 79.3953 77.4147C79.8771 77.5745 80.3412 77.7714 80.7821 78.003C81.0435 77.7619 81.2866 77.5064 81.5096 77.2382C81.5475 77.1745 81.5673 77.1039 81.5673 77.0323C81.5673 76.9606 81.5475 76.8901 81.5096 76.8264C81.1634 76.4725 80.9735 76.0245 80.9735 75.5615C80.9735 75.0985 81.1634 74.6505 81.5096 74.2967C81.5581 73.9146 81.7636 73.5602 82.0889 73.2976C82.4142 73.035 82.8378 72.8816 83.2829 72.8651C83.3878 72.8841 83.4962 72.8841 83.6012 72.8651C83.6962 72.825 83.7695 72.7547 83.8058 72.669C83.883 72.5316 83.9212 72.3803 83.9171 72.2277C83.9131 72.0751 83.8669 71.9255 83.7824 71.7913C83.698 71.6571 83.5777 71.5422 83.4315 71.4562C83.2854 71.3701 83.1175 71.3153 82.9419 71.2963H82.6691C82.4245 71.2642 82.1973 71.1679 82.0183 71.0206C81.8394 70.8732 81.7173 70.6819 81.6687 70.4727C81.5443 70.0686 81.361 69.6799 81.1232 69.3157C81.0048 69.1471 80.9422 68.9538 80.9422 68.7568C80.9422 68.5597 81.0048 68.3664 81.1232 68.1979C81.8734 67.0997 81.8506 67.0997 80.7821 66.2957H80.8503ZM88.6254 85.7294C87.7615 84.1605 87.9434 83.0232 89.1483 82.1996C89.6554 81.8511 90.2846 81.6614 90.9329 81.6614C91.5813 81.6614 92.2104 81.8511 92.7175 82.1996C93.2797 82.6274 93.6342 83.2225 93.71 83.8659C93.7859 84.5093 93.5776 85.1538 93.1268 85.6705C93.7797 86.0179 94.3202 86.5022 94.6978 87.0782C95.0754 87.6542 95.2779 88.3033 95.2865 88.965C96.002 88.2657 96.465 87.4013 96.6185 86.478C96.7719 85.5548 96.6093 84.6129 96.1504 83.7683C95.6416 82.7987 94.7874 81.9943 93.712 81.4723C92.6367 80.9503 91.3963 80.738 90.1713 80.866C88.9786 81.0024 87.8634 81.4519 86.9769 82.1534C86.0903 82.855 85.4753 83.7748 85.2153 84.7881C85.0063 85.5221 85.0155 86.2898 85.242 87.02C85.4686 87.7501 85.9051 88.4191 86.5111 88.965C86.5187 88.3224 86.7093 87.6912 87.0661 87.127C87.4229 86.5628 87.9349 86.0828 88.5572 85.7294H88.6254ZM70.6427 94.6912C70.6489 94.0313 70.8479 93.3835 71.2214 92.8076C71.595 92.2317 72.131 91.7464 72.7797 91.3967C72.3301 90.8745 72.1249 90.2254 72.2049 89.5786C72.285 88.9318 72.6444 88.3347 73.2117 87.9061C73.7153 87.5592 74.3405 87.3703 74.9849 87.3703C75.6294 87.3703 76.2546 87.5592 76.7582 87.9061C77.9858 88.7297 78.145 89.8671 77.2584 91.4359C77.9357 91.773 78.5008 92.2552 78.899 92.8357C79.2973 93.4163 79.5152 94.0756 79.5318 94.75C80.4741 93.7928 80.9565 92.5611 80.8805 91.307C80.8044 90.0529 80.1755 88.8713 79.1225 88.0041C78.5679 87.5411 77.9114 87.1787 77.1917 86.9383C76.4719 86.6979 75.7036 86.5844 74.9321 86.6045C74.1607 86.6246 73.4017 86.7779 72.7001 87.0554C71.9985 87.3328 71.3685 87.7288 70.8473 88.2199C69.8794 89.0772 69.3155 90.2143 69.2651 91.4102C69.2146 92.6061 69.6814 93.7755 70.5745 94.6912H70.6427ZM63.8225 89.0827C64.7644 88.1138 65.2399 86.8703 65.1511 85.6081C65.0623 84.3459 64.4159 83.1611 63.3451 82.2976C62.7903 81.846 62.1377 81.4933 61.4246 81.2597C60.7116 81.0261 59.9521 80.9161 59.1897 80.9362C58.4273 80.9562 57.6769 81.1058 56.9816 81.3765C56.2864 81.6471 55.6599 82.0334 55.138 82.5133C54.1839 83.377 53.6294 84.5121 53.5791 85.7044C53.5289 86.8966 53.9864 88.0635 54.8652 88.9846C55.0391 88.3643 55.2828 87.76 55.5927 87.1805C56.0352 86.6305 56.5376 86.1183 57.0932 85.6509C56.6696 85.1541 56.4767 84.5386 56.5525 83.9254C56.6282 83.3122 56.967 82.7455 57.5024 82.3368C58.0111 81.9663 58.6554 81.763 59.3211 81.763C59.9869 81.763 60.6312 81.9663 61.1398 82.3368C61.7254 82.7485 62.1042 83.3391 62.1974 83.9857C62.2906 84.6323 62.0909 85.285 61.64 85.8078C62.2816 86.1627 62.8149 86.6455 63.1947 87.2154C63.5746 87.7854 63.7899 88.4259 63.8225 89.0827ZM78.0995 56.5298V57.0789C78.0995 59.5694 78.0995 62.0403 78.0995 64.5112C78.0995 64.9818 78.2132 65.2956 78.7588 65.3544C79.0641 65.3592 79.3669 65.3057 79.6454 65.1975C80.3502 64.9622 81.0095 64.3543 81.8052 65.1975V56.5298H78.0995ZM72.2114 94.9658C72.2266 95.0962 72.2266 95.2275 72.2114 95.3579C72.2114 95.8678 72.3932 96.1031 72.9161 96.26C74.1389 96.6231 75.4673 96.6231 76.69 96.26C77.7585 95.9855 77.7585 95.9855 77.7585 95.0246C77.7703 94.8417 77.7703 94.6584 77.7585 94.4755C77.7351 93.9937 77.5421 93.5295 77.2052 93.1447C76.8683 92.7599 76.4035 92.4728 75.8727 92.3216C75.3418 92.1704 74.7702 92.1623 74.2339 92.2983C73.6976 92.4344 73.2221 92.7081 72.8707 93.0832C72.6124 93.3387 72.4201 93.6388 72.3064 93.9633C72.1927 94.2879 72.1604 94.6296 72.2114 94.9658ZM62.1401 89.4357V88.9846C62.1262 88.4012 61.8634 87.8426 61.4021 87.4157C60.9407 86.9889 60.3132 86.7236 59.6394 86.6707C58.9482 86.6032 58.2535 86.77 57.7021 87.1358C57.1507 87.5017 56.7857 88.0381 56.684 88.6317C56.6274 89.0879 56.6274 89.5481 56.684 90.0044C56.7053 90.0971 56.7487 90.1851 56.8112 90.2627C56.8738 90.3403 56.9544 90.4059 57.0477 90.4554C58.2867 90.9751 59.7072 91.0732 61.0262 90.7299C62.1402 90.4554 62.1401 90.4554 62.1401 89.4161V89.4357ZM88.0571 89.4357C88.0685 89.5335 88.0685 89.632 88.0571 89.7298C88.0571 90.2593 88.2389 90.4946 88.7845 90.6515C89.9462 91.013 91.2093 91.0541 92.3993 90.7692C93.6042 90.475 93.5814 90.475 93.5814 89.3965C93.5928 89.2528 93.5928 89.1087 93.5814 88.965C93.5603 88.6017 93.4442 88.2473 93.2418 87.9282C93.0394 87.6091 92.7559 87.3335 92.4126 87.1223C92.0693 86.911 91.675 86.7695 91.2594 86.7083C90.8437 86.647 90.4173 86.6677 90.0122 86.7687C89.3938 86.9443 88.8632 87.2964 88.5078 87.7669C88.1524 88.2374 87.9934 88.7984 88.0571 89.3572V89.4357ZM68.0965 65.2367C68.1857 65.1241 68.3017 65.0291 68.4368 64.9581C68.572 64.8871 68.723 64.8417 68.88 64.825C69.0371 64.8083 69.1964 64.8207 69.3474 64.8612C69.4985 64.9018 69.6378 64.9696 69.7561 65.0603C70.0144 65.2014 70.2886 65.3196 70.5745 65.4132C70.6997 65.4711 70.8401 65.4998 70.982 65.4967C71.1239 65.4935 71.2625 65.4586 71.384 65.3953C71.5056 65.332 71.6059 65.2425 71.6753 65.1357C71.7446 65.0288 71.7805 64.9082 71.7794 64.7857V60.6087H68.0965V65.2367ZM58.2754 84.1802C58.2754 84.461 58.4047 84.7304 58.6349 84.929C58.8651 85.1275 59.1774 85.2391 59.503 85.2391C59.8286 85.2391 60.1409 85.1275 60.3711 84.929C60.6013 84.7304 60.7306 84.461 60.7306 84.1802C60.7306 83.8993 60.6013 83.63 60.3711 83.4314C60.1409 83.2328 59.8286 83.1212 59.503 83.1212C59.1774 83.1212 58.8651 83.2328 58.6349 83.4314C58.4047 83.63 58.2754 83.8993 58.2754 84.1802ZM92.1492 84.1802C92.1493 84.0403 92.1167 83.9019 92.0533 83.7732C91.99 83.6444 91.8971 83.5281 91.7804 83.431C91.6636 83.334 91.5254 83.2583 91.3739 83.2084C91.2224 83.1585 91.0608 83.1356 90.8988 83.1408C90.5732 83.1408 90.2609 83.2524 90.0307 83.451C89.8005 83.6496 89.6712 83.9189 89.6712 84.1998C89.6712 84.4806 89.8005 84.75 90.0307 84.9486C90.2609 85.1471 90.5732 85.2587 90.8988 85.2587C91.0613 85.2514 91.2203 85.2158 91.3664 85.1541C91.5125 85.0923 91.6425 85.0057 91.7488 84.8994C91.855 84.7931 91.9351 84.6694 91.9844 84.5357C92.0337 84.402 92.0511 84.261 92.0355 84.1213L92.1492 84.1802ZM75.0531 88.8082C74.7255 88.8184 74.4156 88.9392 74.1902 89.1446C73.9649 89.35 73.8421 89.6236 73.8482 89.9063C73.8885 90.1599 74.0339 90.3923 74.2575 90.5606C74.4811 90.7288 74.7678 90.8215 75.0645 90.8215C75.3612 90.8215 75.6479 90.7288 75.8715 90.5606C76.0951 90.3923 76.2405 90.1599 76.2808 89.9063C76.3028 89.7498 76.2833 89.5911 76.2236 89.442C76.164 89.293 76.0659 89.1576 75.9367 89.0462C75.8074 88.9347 75.6505 88.85 75.4777 88.7986C75.3049 88.7472 75.1209 88.7303 74.9395 88.7493L75.0531 88.8082Z" fill="#0F6895"/>
<path d="M93.4904 62.6875V72.1985C93.4904 73.0221 93.263 73.2182 92.3082 73.2182H87.6477C86.7838 73.2182 86.5337 73.0221 86.5337 72.2769V52.9609C86.5337 52.2353 86.8065 52 87.625 52H92.3764C93.3312 52 93.5813 52.2157 93.5813 53.0197L93.4904 62.6875ZM91.8535 53.3923C90.785 53.3923 89.7847 53.3923 88.8071 53.3923C88.2615 53.3923 88.1251 53.5296 88.1478 53.9806V71.2768C88.1478 71.4533 88.1478 71.6298 88.1478 71.8063H91.8307L91.8535 53.3923Z" fill="#0F6895"/>
<path d="M63.368 69.1195V72.3552C63.368 72.9631 63.0952 73.218 62.3677 73.218H57.4344C56.6842 73.218 56.4341 73.0023 56.4341 72.3356V65.7466C56.4341 65.1387 56.7069 64.9033 57.4116 64.9033H62.3904C63.0952 64.9033 63.368 65.1583 63.368 65.7662V69.1195ZM61.7311 66.3349H58.0709V71.7865H61.7311V66.3349Z" fill="#0F6895"/>
<path d="M80.3272 72.1984C80.3272 73.1185 80.0106 74.0178 79.4176 74.7825C78.8245 75.5472 77.9817 76.1429 76.9958 76.4941C76.01 76.8453 74.9255 76.9362 73.8797 76.7552C72.8339 76.5743 71.8739 76.1297 71.1213 75.4778C70.3687 74.8258 69.8574 73.9959 69.652 73.0931C69.4467 72.1902 69.5567 71.2551 69.968 70.4062C70.3793 69.5573 71.0734 68.8329 71.9624 68.3245C72.8514 67.8162 73.8954 67.5469 74.962 67.5508C76.387 67.556 77.7516 68.0479 78.7572 68.919C79.7627 69.79 80.3272 70.9692 80.3272 72.1984ZM71.2336 72.1984C71.2381 72.8422 71.4638 73.4704 71.8822 74.0036C72.3006 74.5368 72.893 74.9509 73.5842 75.1937C74.2755 75.4365 75.0348 75.497 75.7659 75.3676C76.4971 75.2382 77.1673 74.9247 77.6919 74.4667C78.2165 74.0087 78.5719 73.4268 78.7131 72.7946C78.8543 72.1624 78.775 71.5083 78.4852 70.9149C78.1954 70.3216 77.7082 69.8157 77.0851 69.4613C76.4621 69.1068 75.7311 68.9197 74.9847 68.9235C74.4834 68.9209 73.9864 69.0044 73.5229 69.1693C73.0594 69.3342 72.6387 69.5771 72.2852 69.8838C71.9318 70.1905 71.6527 70.5549 71.4643 70.9557C71.276 71.3565 71.182 71.7856 71.1881 72.218L71.2336 72.1984Z" fill="#0F6895"/>
</svg>
