<svg width="109" height="108" viewBox="0 0 109 108" fill="none" xmlns="http://www.w3.org/2000/svg">
<path d="M89.153 75.5382L85.1587 77.6112C85.9295 79.0626 86.1287 80.7502 85.7169 82.3412C85.3051 83.9323 84.3122 85.3113 82.934 86.2065C83.4415 87.2043 83.6817 88.3166 83.6308 89.4349C83.5799 90.5531 83.2398 91.6391 82.6437 92.5867C82.0477 93.5342 81.2161 94.3109 80.2302 94.841C79.2442 95.3711 78.1375 95.6364 77.0184 95.6109C75.5016 99.9591 74.7432 100.667 71.0523 101.577C70.5178 102.95 69.8576 104.27 69.0803 105.521C68.268 106.628 67.0749 107.395 65.7308 107.675C64.3866 107.955 62.9863 107.728 61.7995 107.038C60.0299 106.128 58.3108 105.066 56.7434 104.055C56.235 105.146 55.449 106.084 54.4641 106.776C53.4792 107.468 52.33 107.89 51.1312 107.998C49.9309 108.026 48.7466 107.719 47.7109 107.111C46.6751 106.504 45.8286 105.621 45.2661 104.56C44.4315 104.899 43.5368 105.065 42.6361 105.049C41.7354 105.033 40.8473 104.835 40.0253 104.466C39.2033 104.098 38.4644 103.567 37.8531 102.905C37.2418 102.244 36.7708 101.465 36.4684 100.616C35.5121 100.773 34.5331 100.717 33.6012 100.451C32.6693 100.185 31.8077 99.7167 31.0781 99.0789C30.3485 98.4411 29.7689 97.6499 29.381 96.7619C28.993 95.8739 28.8061 94.911 28.8338 93.9424L27.8731 93.6895C26.9481 93.4598 26.0894 93.0171 25.3658 92.3967C24.6421 91.7763 24.0735 90.9954 23.7052 90.1163C23.3368 89.2371 23.179 88.2841 23.2443 87.3332C23.3096 86.3822 23.5961 85.4597 24.0811 84.6392C24.1967 84.312 24.1967 83.955 24.0811 83.6279L18.3677 76.3977C17.893 77.0132 17.3007 77.5282 16.6253 77.9128C15.9499 78.2974 15.2047 78.5439 14.4332 78.638C13.6616 78.7321 12.8791 78.6718 12.131 78.4608C11.3829 78.2498 10.6842 77.8923 10.0756 77.4089L3.04769 73.3135C2.34969 72.9696 1.73323 72.4806 1.2396 71.8792C0.745975 71.2777 0.386508 70.5777 0.185428 69.826C-0.0156512 69.0744 -0.0536744 68.2885 0.0737151 67.5209C0.201105 66.7533 0.490959 66.0218 0.924061 65.3753L15.0306 40.9544C15.1805 40.523 15.4422 40.1392 15.789 39.8421C16.9519 39.0331 16.952 37.9208 16.952 36.6567V2.67973C16.952 0.505604 17.4575 0 19.5811 0H88.6474C90.7709 0 91.3271 0.505604 91.3271 2.67973V37.6174C91.2906 37.9478 91.336 38.2821 91.4595 38.5908C91.5829 38.8995 91.7807 39.1729 92.035 39.387C92.5599 39.9072 93.003 40.5039 93.3495 41.1567C98.0011 49.0947 102.552 57.0834 107.153 65.072C107.648 65.7466 107.987 66.5237 108.144 67.3461C108.3 68.1686 108.271 69.0157 108.057 69.8253C107.844 70.6349 107.452 71.3865 106.911 72.0251C106.369 72.6636 105.692 73.1729 104.928 73.5157L98.1022 77.4595C97.421 78.0145 96.6239 78.4094 95.7695 78.615C94.9152 78.8205 94.0256 78.8314 93.1665 78.647C92.3074 78.4625 91.5005 78.0874 90.8059 77.5493C90.1112 77.0112 89.5464 76.3239 89.153 75.5382ZM20.4913 37.7691C21.2518 38.0238 21.9948 38.3278 22.7158 38.6791L30.5529 43.1791C31.5288 43.6816 32.3307 44.4666 32.8538 45.4317C33.3769 46.3968 33.5969 47.4971 33.4853 48.5891C33.4853 49.2464 33.4854 49.4992 34.2943 49.7015L42.4852 52.634C42.8441 52.8247 43.2554 52.8933 43.6568 52.8294C44.0582 52.7656 44.4278 52.5727 44.7099 52.2801C46.2761 50.7637 48.2026 49.671 50.3079 49.1049C52.4131 48.5388 54.6279 48.5178 56.7434 49.0442C60.4261 49.9761 64.2219 50.3846 68.0186 50.2577C70.1421 50.2577 72.2657 49.7015 74.3387 49.4487C74.3387 46.1622 74.9959 44.6454 76.8161 43.533C80.2543 41.5106 83.7431 39.5387 87.3329 37.5163V3.79208H20.4913V37.7691ZM53.7603 92.6783H54.1143C55.6855 93.0945 57.029 94.114 57.8527 95.5152C58.6764 96.9164 58.9137 98.5861 58.5131 100.161C58.5168 100.318 58.5549 100.471 58.6248 100.611C58.6947 100.751 58.7947 100.874 58.9175 100.97C60.3332 101.83 61.7489 102.689 63.2152 103.498C63.4829 103.663 63.7825 103.769 64.0943 103.81C64.406 103.85 64.7228 103.825 65.0238 103.734C65.3247 103.643 65.603 103.489 65.8403 103.283C66.0776 103.077 66.2686 102.823 66.4006 102.538C66.5861 102.277 66.712 101.979 66.7692 101.665C66.8264 101.35 66.8135 101.027 66.7314 100.718C66.6493 100.409 66.5 100.122 66.2943 99.8769C66.0885 99.6321 65.8313 99.4358 65.541 99.3018L59.4231 95.712C59.0596 95.52 58.7718 95.2106 58.6066 94.8342C58.4413 94.4578 58.4084 94.0365 58.5131 93.639C58.5848 93.2509 58.7918 92.9007 59.0973 92.6508C59.4027 92.4009 59.7869 92.2673 60.1815 92.2738C60.7247 92.2959 61.2506 92.4713 61.6984 92.7795L69.4343 97.2288C69.7037 97.4025 70.0074 97.5159 70.3247 97.5613C70.6421 97.6067 70.9656 97.583 71.2729 97.4917C71.5802 97.4005 71.8642 97.2439 72.1053 97.0328C72.3465 96.8216 72.5391 96.5607 72.6701 96.2681C72.8383 96.0067 72.95 95.713 72.9977 95.4058C73.0454 95.0986 73.0282 94.7849 72.9472 94.4848C72.8662 94.1847 72.7231 93.9049 72.5274 93.6634C72.3316 93.4219 72.0875 93.2241 71.8106 93.0828L70.2433 92.1222C68.2208 90.9593 66.1984 89.7964 64.2265 88.5829C64.0108 88.4733 63.8207 88.3194 63.6685 88.1313C63.5164 87.9431 63.4056 87.725 63.3436 87.4912C63.2815 87.2573 63.2695 87.013 63.3084 86.7742C63.3473 86.5354 63.4362 86.3075 63.5692 86.1054C63.8133 85.6791 64.2152 85.366 64.6882 85.2336C65.1611 85.1012 65.6673 85.16 66.0972 85.3975L67.0073 85.9537L75.9061 91.0098C76.1446 91.2182 76.4257 91.3719 76.7299 91.4602C77.034 91.5485 77.3538 91.5693 77.6668 91.5212C77.9798 91.473 78.2786 91.3571 78.5421 91.1814C78.8056 91.0057 79.0276 90.7746 79.1925 90.5042C79.4292 90.2345 79.5986 89.9126 79.6872 89.5649C79.7757 89.2171 79.7807 88.8534 79.7018 88.5034C79.623 88.1533 79.4625 87.8269 79.2334 87.5507C79.0043 87.2746 78.713 87.0565 78.3835 86.9144C75.3498 85.0942 72.3162 83.3751 69.2826 81.6055C68.9931 81.4704 68.7418 81.2654 68.5515 81.0088C68.3612 80.7522 68.2379 80.4522 68.1928 80.136C68.1476 79.8198 68.1819 79.4972 68.2928 79.1976C68.4036 78.898 68.5875 78.6308 68.8276 78.4201C69.1698 78.1617 69.5868 78.0219 70.0157 78.0219C70.4445 78.0219 70.8617 78.1617 71.2039 78.4201L78.3329 82.5661C78.6614 82.7958 79.0438 82.9366 79.4428 82.975C79.8417 83.0134 80.2438 82.948 80.61 82.7852C80.9763 82.6225 81.2944 82.3678 81.5332 82.0459C81.7721 81.724 81.9236 81.3459 81.9733 80.9481C82.2766 79.8358 81.9734 79.0268 80.5071 78.2684C73.2263 74.0213 65.9455 69.8753 58.6648 65.5776C57.8707 65.0584 56.958 64.749 56.0119 64.6783C55.0658 64.6076 54.1171 64.7778 53.2547 65.1731C52.6611 65.4563 52.0536 65.7094 51.4346 65.9315C51.0069 66.0766 50.617 66.3153 50.2934 66.6302C49.9697 66.9451 49.7205 67.3282 49.5638 67.7517C48.9571 69.1674 48.1987 70.482 47.4908 71.7966C46.8089 72.9116 45.8884 73.8616 44.7957 74.5785C43.7029 75.2953 42.465 75.7612 41.1707 75.9427C40.5398 76.1101 39.8792 76.1332 39.2381 76.0106C38.597 75.8879 37.9917 75.6224 37.4672 75.2339C36.9427 74.8454 36.5125 74.3437 36.2083 73.7662C35.9041 73.1887 35.7337 72.5501 35.71 71.8978C35.71 71.291 35.71 70.6338 35.71 70.027C35.71 67.0439 35.9628 64.0608 36.1651 61.1282C36.3041 60.3516 36.6342 59.6218 37.1257 59.0047C38.137 57.7912 39.2494 56.7295 40.3617 55.5666L31.6146 52.4317C27.8731 58.9541 24.1821 65.2743 20.5417 71.6449C20.5417 71.6449 20.5417 71.9483 20.5417 72.0494C20.46 72.4498 20.46 72.8626 20.5417 73.2629L24.9405 78.7741L26.3562 80.4931C27.1146 79.4313 27.7214 78.5213 28.4292 77.6112C29.0473 76.7436 29.8957 76.066 30.8784 75.655C31.8612 75.2441 32.9393 75.116 33.991 75.2853C34.972 75.4432 35.9063 75.8149 36.7276 76.3742C37.549 76.9334 38.2373 77.6664 38.7437 78.5212C39.6801 77.9494 40.756 77.6468 41.8532 77.6468C42.9504 77.6468 44.0264 77.9494 44.9628 78.5212C45.8761 79.0332 46.6491 79.7624 47.2135 80.6443C47.778 81.5261 48.1162 82.5336 48.1986 83.5773C53.2041 85.2459 55.176 88.3301 53.7603 92.6783ZM87.2317 72.4539L77.3724 55.3643C76.9173 54.5553 76.6139 53.443 75.9061 53.0891C75.1982 52.7351 74.1364 53.0891 73.2263 53.4936C67.5362 54.5316 61.6886 54.3246 56.0861 52.8868C54.522 52.4436 52.8694 52.4156 51.2912 52.8058C49.713 53.1959 48.2637 53.9905 47.0863 55.1115C44.7604 57.235 42.5357 59.4091 40.2605 61.5833C40.0305 61.7938 39.8865 62.0819 39.8561 62.3923L39.401 71.6449C39.401 72.6056 39.8055 72.909 40.6651 72.7068C41.4792 72.598 42.2545 72.2925 42.924 71.8168C43.5935 71.3411 44.1372 70.7094 44.5077 69.9764C45.3167 68.3585 46.1256 66.7405 46.9852 64.9203C47.2514 64.3852 47.6747 63.9441 48.1986 63.6563C49.4626 62.999 50.7772 62.4429 52.1423 61.8867C53.493 61.3112 54.9638 61.0748 56.4268 61.1981C57.8897 61.3215 59.3003 61.8009 60.5355 62.5946C67.3107 66.6394 74.1365 70.5326 81.0128 74.4763C81.4684 74.6516 81.9728 74.6516 82.4285 74.4763C84.097 73.9707 85.7148 73.1112 87.3833 72.3023L87.2317 72.4539ZM88.0913 41.5106H87.8384L86.8777 41.8645L78.9398 46.415C78.6812 46.5353 78.4534 46.7133 78.2741 46.9352C78.0948 47.157 77.9688 47.4169 77.9053 47.695C77.8419 47.9731 77.8429 48.262 77.9083 48.5397C77.9736 48.8173 78.1016 49.0764 78.2824 49.297L92.3384 73.6674C92.445 73.956 92.6193 74.2148 92.8468 74.422C93.0743 74.6292 93.3483 74.7787 93.6456 74.858C93.9429 74.9373 94.2549 74.944 94.5554 74.8776C94.8558 74.8112 95.1359 74.6735 95.3721 74.4763L102.906 70.1281C104.271 69.3191 104.473 68.4596 103.715 67.0439L100.58 61.6339C96.99 55.4149 93.4001 49.1453 89.7597 42.9769C89.3252 42.375 88.8155 41.8312 88.243 41.3589L88.0913 41.5106ZM13.6149 75.2348C14.1205 74.8303 14.8283 74.527 15.1317 73.9708C19.8844 65.8305 24.5867 57.6395 29.2888 49.4992C29.4759 49.268 29.6051 48.9955 29.6658 48.7044C29.7265 48.4132 29.717 48.1118 29.6379 47.8251C29.5588 47.5384 29.4125 47.2747 29.2111 47.0559C29.0097 46.837 28.759 46.6693 28.4798 46.5667C25.9518 45.0499 23.4237 43.5836 20.8451 42.1679C20.6136 41.9699 20.3373 41.8315 20.0401 41.7647C19.7429 41.6978 19.4339 41.7045 19.1399 41.7843C18.8459 41.864 18.5758 42.0143 18.3532 42.2222C18.1305 42.43 17.9618 42.6891 17.862 42.9769C13.1598 51.1172 8.45768 59.207 3.80607 67.3473C3.61901 67.5785 3.48982 67.851 3.42912 68.1421C3.36842 68.4333 3.37796 68.7347 3.45705 69.0214C3.53614 69.3081 3.68245 69.5718 3.88384 69.7906C4.08523 70.0095 4.33592 70.1772 4.61507 70.2798L12.1992 74.6786C12.7118 74.8491 13.2355 74.9842 13.7666 75.0831L13.6149 75.2348ZM34.8 97.4311C35.4772 97.015 36.1048 96.523 36.6707 95.9648C39.0976 92.5772 41.7268 89.139 43.9009 85.8526C44.2023 85.6367 44.4435 85.3474 44.6016 85.012C44.7596 84.6767 44.8292 84.3065 44.8038 83.9366C44.7785 83.5668 44.6591 83.2095 44.4568 82.8989C44.2545 82.5882 43.9761 82.3344 43.6481 82.1616C43.4052 81.9525 43.12 81.7984 42.812 81.7098C42.504 81.6211 42.1804 81.6001 41.8635 81.6481C41.5466 81.6961 41.2438 81.8121 40.9758 81.988C40.7079 82.1639 40.4812 82.3956 40.3111 82.6673C37.8336 86.1054 35.2551 89.5941 32.9798 93.0828C32.6951 93.4132 32.5384 93.8349 32.5384 94.271C32.5384 94.7072 32.6951 95.1288 32.9798 95.4592C33.5892 96.1315 34.2483 96.7568 34.9516 97.3299L34.8 97.4311ZM42.1314 101.83C42.7944 101.413 43.4203 100.939 44.0021 100.414L49.9683 91.9199C50.1729 91.6704 50.3209 91.3794 50.4018 91.0671C50.4828 90.7547 50.4947 90.4285 50.437 90.111C50.3793 89.7935 50.2532 89.4924 50.0675 89.2286C49.8818 88.9647 49.6409 88.7444 49.3616 88.5829C49.1274 88.3752 48.8502 88.2218 48.5499 88.1337C48.2496 88.0457 47.9336 88.025 47.6244 88.0733C47.3153 88.1216 47.0206 88.2377 46.7614 88.4132C46.5023 88.5887 46.2852 88.8193 46.1256 89.0885C44.0526 91.9199 42.0808 94.8019 40.0584 97.6839C39.7831 98.0187 39.6325 98.4386 39.6325 98.872C39.6325 99.3054 39.7831 99.7254 40.0584 100.06C40.746 100.67 41.4911 101.212 42.2831 101.678L42.1314 101.83ZM35.8617 82.1616C35.8877 81.6171 35.7334 81.0791 35.4226 80.6312C35.1118 80.1833 34.6619 79.8504 34.1427 79.6841C33.6738 79.4711 33.1437 79.4358 32.6507 79.5846C32.1578 79.7334 31.7356 80.0563 31.4629 80.4931C30.0472 82.5156 28.6315 84.4874 27.2158 86.5604C26.8538 87.0834 26.7143 87.7288 26.8281 88.3546C26.9419 88.9804 27.2996 89.5354 27.8225 89.8975C28.3455 90.2595 28.9909 90.399 29.6167 90.2852C30.2425 90.1714 30.7975 89.8137 31.1596 89.2908L35.3056 83.4257C35.5479 83.0317 35.735 82.6064 35.8617 82.1616ZM51.03 104.56C51.5261 104.323 51.9859 104.017 52.3952 103.65C53.2548 102.588 54.0132 101.476 54.7716 100.364C54.9543 100.11 55.0814 99.8209 55.1449 99.5149C55.2083 99.2089 55.2067 98.8929 55.1399 98.5876C55.0731 98.2823 54.9428 97.9946 54.7574 97.743C54.572 97.4915 54.3356 97.2818 54.0637 97.1277C53.8293 96.926 53.5546 96.7765 53.2578 96.6894C52.961 96.6023 52.6491 96.5796 52.3428 96.6226C52.0365 96.6657 51.7429 96.7736 51.4816 96.9392C51.2204 97.1047 50.9976 97.3242 50.8279 97.5828C50.0695 98.594 49.3109 99.6557 48.6536 100.718C47.9963 101.779 48.7043 104.206 50.9795 104.307L51.03 104.56Z" fill="#FCFCFC"/>
<path d="M63.3642 34.2291H77.6224C77.8737 34.2009 78.128 34.2254 78.3692 34.301C78.6105 34.3766 78.8333 34.5016 79.0236 34.6681C79.2139 34.8346 79.3675 35.0389 79.4745 35.268C79.5814 35.4971 79.6394 35.7459 79.6448 35.9987C79.6449 36.2553 79.5936 36.5093 79.4939 36.7458C79.3942 36.9823 79.2481 37.1964 79.0643 37.3755C78.8805 37.5546 78.6627 37.695 78.4237 37.7886C78.1847 37.8821 77.9296 37.9268 77.673 37.92H48.7015C48.2366 37.869 47.8093 37.6409 47.508 37.2832C47.2068 36.9254 47.0548 36.4655 47.0835 35.9987C47.0834 35.762 47.1309 35.5276 47.223 35.3096C47.3151 35.0915 47.4498 34.8942 47.6196 34.7292C47.7893 34.5642 47.9904 34.4349 48.211 34.349C48.4316 34.2631 48.6672 34.2223 48.9038 34.2291C49.7633 34.2291 50.6734 34.2291 51.5329 34.2291H63.3642Z" fill="#FCFCFC"/>
<path d="M63.3262 18.1021H48.714C48.3025 18.0535 47.9224 17.8579 47.6437 17.5513C47.365 17.2447 47.2065 16.8478 47.1972 16.4336C47.1384 16.0057 47.2477 15.5717 47.5023 15.2228C47.7568 14.8739 48.1369 14.6374 48.5623 14.5629C49.0141 14.4855 49.4756 14.4855 49.9274 14.5629H77.6348C79.0505 14.5629 79.9607 15.3718 79.9101 16.4842C79.8596 17.5965 79.0505 18.3044 77.5842 18.3044L63.3262 18.1021Z" fill="#FCFCFC"/>
<path d="M32.7768 16.4319L36.9229 12.1848C38.0352 11.123 39.0464 11.0219 39.906 11.8308C40.7655 12.6398 40.6138 13.7522 39.6026 14.7634L34.5465 19.8195C34.3706 20.0802 34.1334 20.2937 33.8557 20.4413C33.578 20.5889 33.2683 20.6662 32.9538 20.6662C32.6393 20.6662 32.3296 20.5889 32.0519 20.4413C31.7743 20.2937 31.537 20.0802 31.3611 19.8195L29.0858 17.5443C28.0746 16.4993 27.9735 15.5386 28.7825 14.6622C29.5915 13.8533 30.7039 13.9545 31.7151 14.9657C32.1321 15.4055 32.4891 15.8985 32.7768 16.4319Z" fill="#FCFCFC"/>
<path d="M32.8732 36.3539L37.0192 32.2079C37.9799 31.1967 39.0417 31.0956 39.8506 31.9046C40.6596 32.7135 40.6597 33.7753 39.5979 34.8371L34.5418 39.8932C34.3699 40.1435 34.1396 40.3482 33.8709 40.4896C33.6022 40.631 33.3032 40.7049 32.9996 40.7049C32.696 40.7049 32.3969 40.631 32.1282 40.4896C31.8596 40.3482 31.6294 40.1435 31.4575 39.8932L28.9801 37.4663C28.7778 37.2954 28.6152 37.0825 28.5037 36.8423C28.3922 36.6022 28.3345 36.3406 28.3345 36.0758C28.3345 35.8111 28.3922 35.5495 28.5037 35.3093C28.6152 35.0692 28.7778 34.8563 28.9801 34.6854C29.1544 34.5065 29.3627 34.3643 29.5928 34.2673C29.8229 34.1702 30.0701 34.1202 30.3198 34.1202C30.5696 34.1202 30.8169 34.1702 31.0471 34.2673C31.2772 34.3643 31.4855 34.5065 31.6598 34.6854C32.0924 35.2206 32.4974 35.7775 32.8732 36.3539Z" fill="#FCFCFC"/>
</svg>
