<svg width="53" height="72" viewBox="0 0 53 72" fill="none" xmlns="http://www.w3.org/2000/svg">
<path d="M48.5934 51.057V65.9346C48.6276 66.7396 48.4948 67.5429 48.2035 68.2937C47.9123 69.0445 47.4688 69.7263 46.9013 70.296C46.3338 70.8658 45.6547 71.3109 44.9068 71.6033C44.159 71.8958 43.3588 72.029 42.5569 71.9947H10.5638C9.76195 72.029 8.96177 71.8958 8.21392 71.6033C7.46608 71.3109 6.7869 70.8658 6.2194 70.296C5.6519 69.7263 5.20846 69.0445 4.91719 68.2937C4.62592 67.5429 4.49317 66.7396 4.52734 65.9346V51.057H1.50911C0.392369 51.057 0 50.663 0 49.5116V14.272C0 13.1508 0.392369 12.7569 1.50911 12.7569H4.52734V5.84838C4.51926 5.07815 4.66442 4.31402 4.95431 3.60084C5.24419 2.88766 5.67295 2.23978 6.21548 1.69512C6.75802 1.15045 7.40339 0.719987 8.11378 0.428967C8.82417 0.137947 9.58529 -0.00778766 10.3525 0.00032067H42.6475C43.4147 -0.00778766 44.1758 0.137947 44.8862 0.428967C45.5966 0.719987 46.242 1.15045 46.7845 1.69512C47.3271 2.23978 47.7558 2.88766 48.0457 3.60084C48.3356 4.31402 48.4807 5.07815 48.4727 5.84838V12.7569H51.4909C52.6076 12.7569 53 13.1508 53 14.3022V49.5116C53 50.663 52.6076 51.057 51.4909 51.057H48.5934ZM50.8571 48.6935V24.453H2.3844V48.6935H50.8571ZM46.2694 12.7266C46.2694 10.3934 46.2694 8.15121 46.2694 5.87866C46.2865 5.40588 46.2059 4.93468 46.0326 4.49475C45.8593 4.05482 45.597 3.65569 45.2624 3.3226C44.9278 2.9895 44.528 2.72963 44.0884 2.55939C43.6487 2.38915 43.1786 2.31224 42.7079 2.33349H10.5638C10.0864 2.31196 9.60982 2.39047 9.16435 2.56406C8.71888 2.73765 8.31431 3.00252 7.97642 3.34174C7.63853 3.68095 7.37472 4.08711 7.20181 4.53433C7.0289 4.98154 6.95065 5.46003 6.97209 5.93927V12.1509C6.97209 12.3327 6.97209 12.5145 6.97209 12.7266H46.2694ZM2.3844 21.9986H50.8571V15.1204H2.3844V21.9986ZM7.06263 60.3593C7.05044 60.4193 7.05044 60.4811 7.06263 60.5411V66.0558C7.05415 66.5289 7.14173 66.9987 7.32001 67.4367C7.49828 67.8746 7.76353 68.2716 8.09959 68.6033C8.43565 68.935 8.83547 69.1945 9.2747 69.3661C9.71392 69.5376 10.1833 69.6175 10.6543 69.601H42.7984C43.268 69.6177 43.7361 69.5377 44.1737 69.3658C44.6114 69.194 45.0093 68.934 45.343 68.6018C45.6767 68.2696 45.9391 67.8724 46.114 67.4345C46.2889 66.9966 46.3726 66.5274 46.3599 66.0558C46.3599 64.3287 46.3599 62.6015 46.3599 60.9047C46.3748 60.7232 46.3748 60.5408 46.3599 60.3593H7.06263ZM46.2995 51.0873H7.06263V57.9655H46.2995V51.0873Z" fill="#2B2B2B"/>
<path d="M31.2689 27.8167C31.2166 28.0542 31.146 28.2872 31.0577 28.5136L24.327 44.27C24.0856 44.7851 23.7536 45.2699 23.1499 45.1487C22.73 45.0421 22.3644 44.783 22.1237 44.4215C22.0561 44.2742 22.021 44.114 22.021 43.9518C22.021 43.7897 22.0561 43.6294 22.1237 43.4822C24.3974 38.129 26.6712 32.786 28.9449 27.4531C29.2165 26.8471 29.6693 26.4532 30.3031 26.6956C30.9369 26.938 30.9973 27.2713 31.3595 27.6046L31.2689 27.8167Z" fill="#2B2B2B"/>
<path d="M39.5085 35.9065C38.8445 35.3005 38.2409 34.7551 37.6674 34.1794C37.0939 33.6037 35.7961 32.3008 34.8604 31.3614C33.9248 30.4221 33.9248 29.9373 34.4982 29.3616C35.0717 28.7859 35.6753 28.9071 36.4903 29.7252L41.6213 34.8763C42.4362 35.6944 42.4362 36.2398 41.6213 37.0276L36.2186 42.3606C35.5546 43.0272 34.8906 43.0878 34.3775 42.603C33.8644 42.1182 33.8946 41.391 34.5888 40.6941L39.5085 35.9065Z" fill="#2B2B2B"/>
<path d="M13.8234 35.9972L18.3206 40.512L18.7733 40.9666C18.8848 41.0714 18.9737 41.1981 19.0344 41.3388C19.0952 41.4796 19.1265 41.6313 19.1265 41.7846C19.1265 41.938 19.0952 42.0898 19.0344 42.2305C18.9737 42.3712 18.8848 42.4979 18.7733 42.6028C18.6719 42.7091 18.5501 42.7937 18.4152 42.8515C18.2803 42.9093 18.1352 42.9391 17.9886 42.9391C17.8419 42.9391 17.6968 42.9093 17.562 42.8515C17.4271 42.7937 17.3053 42.7091 17.2038 42.6028C16.5398 41.9665 15.8758 41.2695 15.2118 40.6029L11.5899 36.9668C11.4281 36.8555 11.2957 36.7063 11.2042 36.5321C11.1128 36.3579 11.0649 36.1639 11.0649 35.9669C11.0649 35.77 11.1128 35.576 11.2042 35.4018C11.2957 35.2276 11.4281 35.0783 11.5899 34.967L16.9926 29.5432C17.6566 28.9069 18.3206 28.8463 18.8337 29.5432C19.3468 30.2401 19.2562 30.6946 18.5922 31.3612L14.4271 35.573C14.216 35.6997 14.0143 35.8415 13.8234 35.9972Z" fill="#2B2B2B"/>
<path d="M26.6208 6.96988H22.2745C21.369 6.96988 20.856 6.51538 20.856 5.78816C20.856 5.06094 21.369 4.63672 22.2745 4.63672H30.967C31.8725 4.63672 32.3856 5.06094 32.3856 5.78816C32.3856 6.51538 31.8725 6.93958 30.967 6.96988H26.6208Z" fill="#2B2B2B"/>
<path d="M34.7095 5.72746C34.7541 5.45034 34.8955 5.19824 35.1085 5.01627C35.3214 4.8343 35.5919 4.73438 35.8715 4.73438C36.1511 4.73438 36.4216 4.8343 36.6345 5.01627C36.8474 5.19824 36.9889 5.45034 37.0335 5.72746C37.0258 5.87874 36.9884 6.02698 36.9235 6.16374C36.8586 6.30049 36.7675 6.42304 36.6553 6.52437C36.5432 6.6257 36.4122 6.70382 36.2699 6.75425C36.1277 6.80468 35.9769 6.82646 35.8262 6.81829C35.5396 6.80434 35.268 6.6858 35.0623 6.48493C34.8567 6.28406 34.7312 6.01468 34.7095 5.72746Z" fill="#2B2B2B"/>
<path d="M38.1504 19.7263C37.8488 19.7107 37.5647 19.5794 37.3569 19.3594C37.149 19.1395 37.0333 18.8477 37.0337 18.5445C37.0397 18.3169 37.1129 18.0962 37.2439 17.9103C37.3748 17.7244 37.5578 17.5817 37.7695 17.5002C37.9813 17.4186 38.2124 17.402 38.4336 17.4523C38.6548 17.5026 38.8562 17.6176 39.0123 17.7828C39.1684 17.948 39.2722 18.1559 39.3106 18.3803C39.349 18.6047 39.3202 18.8355 39.228 19.0435C39.1358 19.2515 38.9842 19.4274 38.7924 19.5489C38.6006 19.6705 38.3772 19.7322 38.1504 19.7263Z" fill="#2B2B2B"/>
<path d="M43.9456 18.5749C43.9456 18.8803 43.8248 19.1731 43.6097 19.3891C43.3946 19.605 43.1029 19.7263 42.7987 19.7263C42.5634 19.7323 42.3318 19.6674 42.1336 19.5399C41.9355 19.4123 41.78 19.2281 41.6872 19.011C41.5944 18.7939 41.5685 18.5538 41.613 18.3218C41.6574 18.0898 41.7701 17.8765 41.9366 17.7094C42.103 17.5423 42.3155 17.4292 42.5466 17.3846C42.7777 17.3399 43.0168 17.3659 43.2331 17.459C43.4494 17.5522 43.6328 17.7083 43.7599 17.9072C43.8869 18.1062 43.9516 18.3387 43.9456 18.5749Z" fill="#2B2B2B"/>
<path d="M48.5931 18.544C48.5991 18.7789 48.5352 19.0103 48.4096 19.2086C48.2839 19.4068 48.1022 19.563 47.8877 19.6571C47.6733 19.7512 47.4357 19.779 47.2054 19.7369C46.9751 19.6948 46.7626 19.5847 46.5949 19.4207C46.4272 19.2567 46.3121 19.0462 46.2642 18.8162C46.2163 18.5862 46.2378 18.347 46.3259 18.1293C46.414 17.9116 46.5648 17.7253 46.759 17.594C46.9532 17.4628 47.1819 17.3927 47.416 17.3926C47.7207 17.3999 48.0115 17.5226 48.2298 17.7362C48.4482 17.9497 48.5779 18.2383 48.5931 18.544Z" fill="#2B2B2B"/>
<path d="M30.1822 64.9651C30.1822 65.8892 29.8165 66.7756 29.1655 67.429C28.5146 68.0825 27.6318 68.4496 26.7112 68.4496C25.7906 68.4496 24.9078 68.0825 24.2569 67.429C23.6059 66.7756 23.2402 65.8892 23.2402 64.9651C23.2402 64.0409 23.6059 63.1546 24.2569 62.5011C24.9078 61.8476 25.7906 61.4805 26.7112 61.4805C27.6318 61.4805 28.5146 61.8476 29.1655 62.5011C29.8165 63.1546 30.1822 64.0409 30.1822 64.9651ZM27.8581 64.9651C27.8581 64.6597 27.7373 64.3668 27.5222 64.1509C27.3071 63.9349 27.0154 63.8136 26.7112 63.8136C26.5554 63.8134 26.4011 63.8451 26.2579 63.9067C26.1146 63.9683 25.9854 64.0586 25.8781 64.172C25.7708 64.2854 25.6876 64.4196 25.6336 64.5664C25.5797 64.7132 25.5561 64.8695 25.5643 65.0257C25.5799 65.3258 25.7118 65.6078 25.9317 65.8116C26.1516 66.0154 26.4422 66.1248 26.7414 66.1165C27.0269 66.0933 27.2926 65.9609 27.4836 65.7466C27.6746 65.5323 27.7762 65.2525 27.7676 64.9651H27.8581Z" fill="#2B2B2B"/>
<path d="M15.091 63.814H17.2641C17.5795 63.7973 17.8889 63.9054 18.1258 64.1149C18.3628 64.3245 18.5085 64.619 18.5318 64.9352C18.537 65.0997 18.507 65.2634 18.4439 65.4153C18.3808 65.5672 18.286 65.7037 18.1659 65.8157C18.0457 65.9277 17.9031 66.0125 17.7475 66.0645C17.592 66.1165 17.4271 66.1343 17.2641 66.1169H12.8575C12.6996 66.1337 12.5399 66.1174 12.3886 66.0691C12.2372 66.0207 12.0976 65.9413 11.9784 65.8359C11.8592 65.7305 11.7631 65.6014 11.6963 65.4568C11.6294 65.3122 11.5931 65.1552 11.5898 64.9958C11.5894 64.8326 11.6225 64.6712 11.6873 64.5215C11.752 64.3719 11.8469 64.2373 11.966 64.1263C12.0851 64.0153 12.2258 63.9303 12.3792 63.8765C12.5326 63.8228 12.6955 63.8015 12.8575 63.814H15.091Z" fill="#2B2B2B"/>
<path d="M38.1804 63.8131H40.4139C40.5735 63.8049 40.7331 63.8293 40.8829 63.885C41.0328 63.9407 41.1698 64.0265 41.2856 64.1371C41.4013 64.2476 41.4935 64.3807 41.5564 64.5282C41.6193 64.6756 41.6516 64.8344 41.6514 64.9948C41.6478 65.1514 41.6124 65.3057 41.5473 65.4481C41.4823 65.5905 41.389 65.718 41.2732 65.8229C41.1573 65.9279 41.0214 66.008 40.8736 66.0584C40.7259 66.1088 40.5695 66.1284 40.4139 66.116H35.947C35.7889 66.1285 35.63 66.108 35.4802 66.0558C35.3304 66.0036 35.193 65.9208 35.0768 65.8126C34.9605 65.7044 34.8678 65.5732 34.8046 65.4272C34.7414 65.2812 34.709 65.1237 34.7095 64.9645C34.7133 64.8067 34.7486 64.6512 34.8133 64.5073C34.878 64.3633 34.9707 64.2339 35.0861 64.1265C35.2014 64.0192 35.3371 63.9362 35.4849 63.8824C35.6328 63.8285 35.7899 63.805 35.947 63.8131H38.1804Z" fill="#2B2B2B"/>
</svg>
