<svg width="342" height="342" viewBox="0 0 342 342" fill="none" xmlns="http://www.w3.org/2000/svg">
<path d="M329.532 183.185C336.14 183.692 341.129 189.471 340.159 196.027C334.879 231.722 318.417 264.947 292.988 290.833C267.558 316.72 234.632 333.771 199.037 339.686C192.5 340.773 186.633 335.888 186.007 329.29L182.959 297.141C182.334 290.543 187.196 284.751 193.693 283.44C216.075 278.923 236.7 267.803 252.829 251.384C268.958 234.965 279.709 214.145 283.826 191.686C285.021 185.167 290.726 180.202 297.334 180.71L329.532 183.185Z" fill="#86D1F3"/>
<path d="M183.241 12.4719C183.751 5.86413 189.532 0.877923 196.087 1.85009C231.78 7.14299 264.999 23.6161 290.876 49.0548C316.754 74.4935 333.793 107.426 339.696 143.023C340.78 149.561 335.894 155.426 329.296 156.049L297.145 159.086C290.547 159.709 284.757 154.844 283.448 148.347C278.939 125.963 267.826 105.334 251.413 89.1992C235 73.0644 214.184 62.3063 191.726 58.1809C185.207 56.9835 180.244 51.277 180.755 44.6692L183.241 12.4719Z" fill="#86D1F3"/>
<path d="M12.2558 161.985C5.63901 161.609 0.536297 155.931 1.37496 149.357C5.94106 113.564 21.7354 80.0173 46.6427 53.6277C71.55 27.2381 104.129 9.533 139.598 2.90773C146.113 1.69085 152.077 6.45717 152.834 13.0412L156.523 45.1229C157.281 51.7069 152.535 57.5953 146.066 59.0358C123.778 63.999 103.379 75.5287 87.5811 92.2667C71.7833 109.005 61.4508 130.035 57.7828 152.573C56.7182 159.114 51.1138 164.192 44.497 163.816L12.2558 161.985Z" fill="#86D1F3"/>
<path d="M157.741 329.446C157.189 336.051 151.376 341 144.827 339.985C109.169 334.463 76.0563 317.777 50.3425 292.172C24.6288 266.568 7.80166 233.527 2.12775 197.893C1.0856 191.348 6.00977 185.514 12.6117 184.934L44.7807 182.104C51.3826 181.523 57.1418 186.424 58.4088 192.93C62.7739 215.343 73.7537 236.043 90.063 252.283C106.372 268.522 127.119 279.414 149.55 283.684C156.061 284.923 160.987 290.661 160.434 297.266L157.741 329.446Z" fill="#86D1F3"/>
<g filter="url(#filter0_i_1715_4077)">
<circle cx="170.5" cy="170.5" r="122.5" fill="white"/>
</g>
<path d="M85.6226 170.36C83.1746 170.36 81.0266 169.82 79.1786 168.74C77.3546 167.66 75.9386 166.148 74.9306 164.204C73.9226 162.236 73.4186 159.932 73.4186 157.292C73.4186 155.3 73.7066 153.512 74.2826 151.928C74.8586 150.32 75.6746 148.952 76.7306 147.824C77.8106 146.672 79.0946 145.796 80.5826 145.196C82.0946 144.572 83.7746 144.26 85.6226 144.26C88.0946 144.26 90.2426 144.8 92.0666 145.88C93.8906 146.936 95.3066 148.436 96.3146 150.38C97.3226 152.324 97.8266 154.616 97.8266 157.256C97.8266 159.248 97.5386 161.048 96.9626 162.656C96.3866 164.264 95.5586 165.644 94.4786 166.796C93.4226 167.948 92.1386 168.836 90.6266 169.46C89.1386 170.06 87.4706 170.36 85.6226 170.36ZM85.6226 166.4C87.1826 166.4 88.5026 166.04 89.5826 165.32C90.6866 164.6 91.5266 163.556 92.1026 162.188C92.7026 160.82 93.0026 159.188 93.0026 157.292C93.0026 154.412 92.3546 152.18 91.0586 150.596C89.7866 149.012 87.9746 148.22 85.6226 148.22C84.0866 148.22 82.7666 148.58 81.6626 149.3C80.5586 149.996 79.7066 151.028 79.1066 152.396C78.5306 153.74 78.2426 155.372 78.2426 157.292C78.2426 160.148 78.8906 162.38 80.1866 163.988C81.4826 165.596 83.2946 166.4 85.6226 166.4ZM108.452 170.36C106.988 170.36 105.776 170.096 104.816 169.568C103.856 169.016 103.136 168.2 102.656 167.12C102.2 166.04 101.972 164.696 101.972 163.088V154.376C101.972 153.608 102.164 153.044 102.548 152.684C102.932 152.3 103.484 152.108 104.204 152.108C104.924 152.108 105.476 152.3 105.86 152.684C106.268 153.044 106.472 153.608 106.472 154.376V163.16C106.472 164.408 106.724 165.332 107.228 165.932C107.732 166.532 108.536 166.832 109.64 166.832C110.84 166.832 111.824 166.424 112.592 165.608C113.36 164.768 113.744 163.664 113.744 162.296V154.376C113.744 153.608 113.936 153.044 114.32 152.684C114.704 152.3 115.256 152.108 115.976 152.108C116.696 152.108 117.248 152.3 117.632 152.684C118.04 153.044 118.244 153.608 118.244 154.376V167.984C118.244 169.52 117.512 170.288 116.048 170.288C115.352 170.288 114.812 170.096 114.428 169.712C114.044 169.304 113.852 168.728 113.852 167.984V165.248L114.356 166.328C113.852 167.624 113.084 168.62 112.052 169.316C111.044 170.012 109.844 170.36 108.452 170.36ZM125.232 170.288C124.488 170.288 123.912 170.096 123.504 169.712C123.12 169.304 122.928 168.728 122.928 167.984V154.376C122.928 153.632 123.12 153.068 123.504 152.684C123.888 152.3 124.428 152.108 125.124 152.108C125.82 152.108 126.36 152.3 126.744 152.684C127.128 153.068 127.32 153.632 127.32 154.376V156.644H126.96C127.296 155.204 127.956 154.112 128.94 153.368C129.924 152.624 131.232 152.18 132.864 152.036C133.368 151.988 133.764 152.12 134.052 152.432C134.364 152.72 134.544 153.176 134.592 153.8C134.64 154.4 134.496 154.892 134.16 155.276C133.848 155.636 133.368 155.852 132.72 155.924L131.928 155.996C130.464 156.14 129.36 156.596 128.616 157.364C127.872 158.108 127.5 159.164 127.5 160.532V167.984C127.5 168.728 127.308 169.304 126.924 169.712C126.54 170.096 125.976 170.288 125.232 170.288ZM149.679 170C148.887 170 148.275 169.796 147.843 169.388C147.435 168.956 147.231 168.344 147.231 167.552V147.068C147.231 146.276 147.435 145.676 147.843 145.268C148.275 144.836 148.887 144.62 149.679 144.62H156.663C160.911 144.62 164.187 145.712 166.491 147.896C168.819 150.08 169.983 153.212 169.983 157.292C169.983 159.332 169.683 161.144 169.083 162.728C168.507 164.288 167.643 165.608 166.491 166.688C165.363 167.768 163.971 168.596 162.315 169.172C160.683 169.724 158.799 170 156.663 170H149.679ZM151.839 166.184H156.375C157.863 166.184 159.147 166.004 160.227 165.644C161.331 165.26 162.243 164.708 162.963 163.988C163.707 163.244 164.259 162.32 164.619 161.216C164.979 160.088 165.159 158.78 165.159 157.292C165.159 154.316 164.427 152.096 162.963 150.632C161.499 149.168 159.303 148.436 156.375 148.436H151.839V166.184ZM182.897 170.36C180.905 170.36 179.189 169.988 177.749 169.244C176.309 168.5 175.193 167.444 174.401 166.076C173.633 164.708 173.249 163.088 173.249 161.216C173.249 159.392 173.621 157.796 174.365 156.428C175.133 155.06 176.177 153.992 177.497 153.224C178.841 152.432 180.365 152.036 182.069 152.036C183.317 152.036 184.433 152.24 185.417 152.648C186.425 153.056 187.277 153.644 187.973 154.412C188.693 155.18 189.233 156.116 189.593 157.22C189.977 158.3 190.169 159.524 190.169 160.892C190.169 161.324 190.013 161.66 189.701 161.9C189.413 162.116 188.993 162.224 188.441 162.224H176.885V159.632H187.001L186.425 160.172C186.425 159.068 186.257 158.144 185.921 157.4C185.609 156.656 185.141 156.092 184.517 155.708C183.917 155.3 183.161 155.096 182.249 155.096C181.241 155.096 180.377 155.336 179.657 155.816C178.961 156.272 178.421 156.932 178.037 157.796C177.677 158.636 177.497 159.644 177.497 160.82V161.072C177.497 163.04 177.953 164.516 178.865 165.5C179.801 166.46 181.169 166.94 182.969 166.94C183.593 166.94 184.289 166.868 185.057 166.724C185.849 166.556 186.593 166.28 187.289 165.896C187.793 165.608 188.237 165.488 188.621 165.536C189.005 165.56 189.305 165.692 189.521 165.932C189.761 166.172 189.905 166.472 189.953 166.832C190.001 167.168 189.929 167.516 189.737 167.876C189.569 168.236 189.269 168.548 188.837 168.812C187.997 169.34 187.025 169.736 185.921 170C184.841 170.24 183.833 170.36 182.897 170.36ZM200.579 170.288C199.979 170.288 199.451 170.132 198.995 169.82C198.563 169.508 198.203 169.028 197.915 168.38L192.191 155.096C191.975 154.568 191.891 154.076 191.939 153.62C192.011 153.164 192.227 152.804 192.587 152.54C192.971 152.252 193.487 152.108 194.135 152.108C194.687 152.108 195.131 152.24 195.467 152.504C195.803 152.744 196.103 153.212 196.367 153.908L201.227 166.04H200.147L205.151 153.872C205.415 153.2 205.715 152.744 206.051 152.504C206.411 152.24 206.891 152.108 207.491 152.108C208.019 152.108 208.439 152.252 208.751 152.54C209.063 152.804 209.255 153.164 209.327 153.62C209.399 154.052 209.315 154.532 209.075 155.06L203.243 168.38C202.979 169.028 202.619 169.508 202.163 169.82C201.731 170.132 201.203 170.288 200.579 170.288ZM224.244 170.36C221.796 170.36 219.648 169.82 217.8 168.74C215.976 167.66 214.56 166.148 213.552 164.204C212.544 162.236 212.04 159.932 212.04 157.292C212.04 155.3 212.328 153.512 212.904 151.928C213.48 150.32 214.296 148.952 215.352 147.824C216.432 146.672 217.716 145.796 219.204 145.196C220.716 144.572 222.396 144.26 224.244 144.26C226.716 144.26 228.864 144.8 230.688 145.88C232.512 146.936 233.928 148.436 234.936 150.38C235.944 152.324 236.448 154.616 236.448 157.256C236.448 159.248 236.16 161.048 235.584 162.656C235.008 164.264 234.18 165.644 233.1 166.796C232.044 167.948 230.76 168.836 229.248 169.46C227.76 170.06 226.092 170.36 224.244 170.36ZM224.244 166.4C225.804 166.4 227.124 166.04 228.204 165.32C229.308 164.6 230.148 163.556 230.724 162.188C231.324 160.82 231.624 159.188 231.624 157.292C231.624 154.412 230.976 152.18 229.68 150.596C228.408 149.012 226.596 148.22 224.244 148.22C222.708 148.22 221.388 148.58 220.284 149.3C219.18 149.996 218.328 151.028 217.728 152.396C217.152 153.74 216.864 155.372 216.864 157.292C216.864 160.148 217.512 162.38 218.808 163.988C220.104 165.596 221.916 166.4 224.244 166.4ZM242.933 176.768C242.213 176.768 241.661 176.576 241.277 176.192C240.893 175.808 240.701 175.244 240.701 174.5V154.376C240.701 153.632 240.893 153.068 241.277 152.684C241.661 152.3 242.201 152.108 242.897 152.108C243.617 152.108 244.169 152.3 244.553 152.684C244.937 153.068 245.129 153.632 245.129 154.376V157.184L244.733 156.104C245.093 154.88 245.825 153.896 246.929 153.152C248.057 152.408 249.365 152.036 250.853 152.036C252.389 152.036 253.733 152.408 254.885 153.152C256.061 153.896 256.973 154.952 257.621 156.32C258.269 157.664 258.593 159.284 258.593 161.18C258.593 163.052 258.269 164.684 257.621 166.076C256.973 167.444 256.073 168.5 254.921 169.244C253.769 169.988 252.413 170.36 250.853 170.36C249.389 170.36 248.105 170 247.001 169.28C245.897 168.536 245.153 167.576 244.769 166.4H245.201V174.5C245.201 175.244 244.997 175.808 244.589 176.192C244.205 176.576 243.653 176.768 242.933 176.768ZM249.593 166.94C250.481 166.94 251.261 166.724 251.933 166.292C252.605 165.86 253.121 165.224 253.481 164.384C253.865 163.52 254.057 162.452 254.057 161.18C254.057 159.26 253.649 157.832 252.833 156.896C252.017 155.936 250.937 155.456 249.593 155.456C248.705 155.456 247.925 155.672 247.253 156.104C246.581 156.512 246.053 157.148 245.669 158.012C245.309 158.852 245.129 159.908 245.129 161.18C245.129 163.076 245.537 164.516 246.353 165.5C247.169 166.46 248.249 166.94 249.593 166.94ZM268.731 170.36C267.699 170.36 266.607 170.252 265.455 170.036C264.303 169.82 263.271 169.448 262.359 168.92C261.975 168.68 261.699 168.404 261.531 168.092C261.387 167.756 261.327 167.432 261.351 167.12C261.399 166.784 261.519 166.496 261.711 166.256C261.927 166.016 262.191 165.86 262.503 165.788C262.839 165.716 263.199 165.776 263.583 165.968C264.543 166.424 265.443 166.748 266.283 166.94C267.123 167.108 267.951 167.192 268.767 167.192C269.919 167.192 270.771 167 271.323 166.616C271.899 166.208 272.187 165.68 272.187 165.032C272.187 164.48 271.995 164.06 271.611 163.772C271.251 163.46 270.699 163.232 269.955 163.088L266.355 162.404C264.867 162.116 263.727 161.576 262.935 160.784C262.167 159.968 261.783 158.924 261.783 157.652C261.783 156.5 262.095 155.504 262.719 154.664C263.367 153.824 264.255 153.176 265.383 152.72C266.511 152.264 267.807 152.036 269.271 152.036C270.327 152.036 271.311 152.156 272.223 152.396C273.159 152.612 274.059 152.96 274.923 153.44C275.283 153.632 275.523 153.884 275.643 154.196C275.787 154.508 275.823 154.832 275.751 155.168C275.679 155.48 275.535 155.768 275.319 156.032C275.103 156.272 274.827 156.428 274.491 156.5C274.179 156.548 273.819 156.476 273.411 156.284C272.667 155.9 271.947 155.624 271.251 155.456C270.579 155.288 269.931 155.204 269.307 155.204C268.131 155.204 267.255 155.408 266.679 155.816C266.127 156.224 265.851 156.764 265.851 157.436C265.851 157.94 266.019 158.36 266.355 158.696C266.691 159.032 267.207 159.26 267.903 159.38L271.503 160.064C273.063 160.352 274.239 160.88 275.031 161.648C275.847 162.416 276.255 163.448 276.255 164.744C276.255 166.496 275.571 167.876 274.203 168.884C272.835 169.868 271.011 170.36 268.731 170.36ZM115.082 219.288C114.338 219.288 113.762 219.084 113.354 218.676C112.97 218.244 112.778 217.656 112.778 216.912V195.96C112.778 195.192 112.982 194.616 113.39 194.232C113.798 193.824 114.374 193.62 115.118 193.62H123.794C126.578 193.62 128.726 194.316 130.238 195.708C131.75 197.1 132.506 199.044 132.506 201.54C132.506 204.036 131.75 205.992 130.238 207.408C128.726 208.8 126.578 209.496 123.794 209.496H117.386V216.912C117.386 217.656 117.194 218.244 116.81 218.676C116.426 219.084 115.85 219.288 115.082 219.288ZM117.386 205.86H123.074C124.706 205.86 125.942 205.5 126.782 204.78C127.622 204.036 128.042 202.956 128.042 201.54C128.042 200.124 127.622 199.056 126.782 198.336C125.942 197.616 124.706 197.256 123.074 197.256H117.386V205.86ZM137.783 219.288C137.039 219.288 136.463 219.096 136.055 218.712C135.671 218.304 135.479 217.728 135.479 216.984V203.376C135.479 202.632 135.671 202.068 136.055 201.684C136.439 201.3 136.979 201.108 137.675 201.108C138.371 201.108 138.911 201.3 139.295 201.684C139.679 202.068 139.871 202.632 139.871 203.376V205.644H139.511C139.847 204.204 140.507 203.112 141.491 202.368C142.475 201.624 143.783 201.18 145.415 201.036C145.919 200.988 146.315 201.12 146.603 201.432C146.915 201.72 147.095 202.176 147.143 202.8C147.191 203.4 147.047 203.892 146.711 204.276C146.399 204.636 145.919 204.852 145.271 204.924L144.479 204.996C143.015 205.14 141.911 205.596 141.167 206.364C140.423 207.108 140.051 208.164 140.051 209.532V216.984C140.051 217.728 139.859 218.304 139.475 218.712C139.091 219.096 138.527 219.288 137.783 219.288ZM157.323 219.36C155.499 219.36 153.915 218.988 152.571 218.244C151.227 217.5 150.183 216.444 149.439 215.076C148.695 213.684 148.323 212.052 148.323 210.18C148.323 208.764 148.527 207.504 148.935 206.4C149.367 205.272 149.979 204.312 150.771 203.52C151.563 202.704 152.511 202.092 153.615 201.684C154.719 201.252 155.955 201.036 157.323 201.036C159.147 201.036 160.731 201.408 162.075 202.152C163.419 202.896 164.463 203.952 165.207 205.32C165.951 206.688 166.323 208.308 166.323 210.18C166.323 211.596 166.107 212.868 165.675 213.996C165.267 215.124 164.667 216.096 163.875 216.912C163.083 217.704 162.135 218.316 161.031 218.748C159.927 219.156 158.691 219.36 157.323 219.36ZM157.323 215.94C158.211 215.94 158.991 215.724 159.663 215.292C160.335 214.86 160.851 214.224 161.211 213.384C161.595 212.52 161.787 211.452 161.787 210.18C161.787 208.26 161.379 206.832 160.563 205.896C159.747 204.936 158.667 204.456 157.323 204.456C156.435 204.456 155.655 204.672 154.983 205.104C154.311 205.512 153.783 206.148 153.399 207.012C153.039 207.852 152.859 208.908 152.859 210.18C152.859 212.076 153.267 213.516 154.083 214.5C154.899 215.46 155.979 215.94 157.323 215.94ZM178.173 219.36C176.325 219.36 174.717 218.988 173.349 218.244C171.981 217.476 170.925 216.396 170.181 215.004C169.437 213.612 169.065 211.98 169.065 210.108C169.065 208.692 169.269 207.432 169.677 206.328C170.109 205.2 170.721 204.252 171.513 203.484C172.305 202.692 173.265 202.092 174.393 201.684C175.521 201.252 176.781 201.036 178.173 201.036C178.965 201.036 179.817 201.144 180.729 201.36C181.665 201.576 182.541 201.936 183.357 202.44C183.741 202.68 183.993 202.968 184.113 203.304C184.233 203.64 184.257 203.988 184.185 204.348C184.113 204.684 183.957 204.984 183.717 205.248C183.501 205.488 183.225 205.644 182.889 205.716C182.553 205.764 182.181 205.68 181.773 205.464C181.245 205.152 180.705 204.924 180.153 204.78C179.601 204.612 179.073 204.528 178.569 204.528C177.777 204.528 177.081 204.66 176.481 204.924C175.881 205.164 175.365 205.524 174.933 206.004C174.525 206.46 174.213 207.036 173.997 207.732C173.781 208.428 173.673 209.232 173.673 210.144C173.673 211.92 174.093 213.324 174.933 214.356C175.797 215.364 177.009 215.868 178.569 215.868C179.073 215.868 179.589 215.796 180.117 215.652C180.669 215.508 181.221 215.28 181.773 214.968C182.181 214.752 182.541 214.68 182.853 214.752C183.189 214.824 183.465 214.992 183.681 215.256C183.897 215.496 184.029 215.796 184.077 216.156C184.125 216.492 184.077 216.828 183.933 217.164C183.813 217.5 183.573 217.776 183.213 217.992C182.421 218.472 181.581 218.82 180.693 219.036C179.805 219.252 178.965 219.36 178.173 219.36ZM195.342 219.36C193.35 219.36 191.634 218.988 190.194 218.244C188.754 217.5 187.638 216.444 186.846 215.076C186.078 213.708 185.694 212.088 185.694 210.216C185.694 208.392 186.066 206.796 186.81 205.428C187.578 204.06 188.622 202.992 189.942 202.224C191.286 201.432 192.81 201.036 194.514 201.036C195.762 201.036 196.878 201.24 197.862 201.648C198.87 202.056 199.722 202.644 200.418 203.412C201.138 204.18 201.678 205.116 202.038 206.22C202.422 207.3 202.614 208.524 202.614 209.892C202.614 210.324 202.458 210.66 202.146 210.9C201.858 211.116 201.438 211.224 200.886 211.224H189.33V208.632H199.446L198.87 209.172C198.87 208.068 198.702 207.144 198.366 206.4C198.054 205.656 197.586 205.092 196.962 204.708C196.362 204.3 195.606 204.096 194.694 204.096C193.686 204.096 192.822 204.336 192.102 204.816C191.406 205.272 190.866 205.932 190.482 206.796C190.122 207.636 189.942 208.644 189.942 209.82V210.072C189.942 212.04 190.398 213.516 191.31 214.5C192.246 215.46 193.614 215.94 195.414 215.94C196.038 215.94 196.734 215.868 197.502 215.724C198.294 215.556 199.038 215.28 199.734 214.896C200.238 214.608 200.682 214.488 201.066 214.536C201.45 214.56 201.75 214.692 201.966 214.932C202.206 215.172 202.35 215.472 202.398 215.832C202.446 216.168 202.374 216.516 202.182 216.876C202.014 217.236 201.714 217.548 201.282 217.812C200.442 218.34 199.47 218.736 198.366 219C197.286 219.24 196.278 219.36 195.342 219.36ZM212.622 219.36C211.59 219.36 210.498 219.252 209.346 219.036C208.194 218.82 207.162 218.448 206.25 217.92C205.866 217.68 205.59 217.404 205.422 217.092C205.278 216.756 205.218 216.432 205.242 216.12C205.29 215.784 205.41 215.496 205.602 215.256C205.818 215.016 206.082 214.86 206.394 214.788C206.73 214.716 207.09 214.776 207.474 214.968C208.434 215.424 209.334 215.748 210.174 215.94C211.014 216.108 211.842 216.192 212.658 216.192C213.81 216.192 214.662 216 215.214 215.616C215.79 215.208 216.078 214.68 216.078 214.032C216.078 213.48 215.886 213.06 215.502 212.772C215.142 212.46 214.59 212.232 213.846 212.088L210.246 211.404C208.758 211.116 207.618 210.576 206.826 209.784C206.058 208.968 205.674 207.924 205.674 206.652C205.674 205.5 205.986 204.504 206.61 203.664C207.258 202.824 208.146 202.176 209.274 201.72C210.402 201.264 211.698 201.036 213.162 201.036C214.218 201.036 215.202 201.156 216.114 201.396C217.05 201.612 217.95 201.96 218.814 202.44C219.174 202.632 219.414 202.884 219.534 203.196C219.678 203.508 219.714 203.832 219.642 204.168C219.57 204.48 219.426 204.768 219.21 205.032C218.994 205.272 218.718 205.428 218.382 205.5C218.07 205.548 217.71 205.476 217.302 205.284C216.558 204.9 215.838 204.624 215.142 204.456C214.47 204.288 213.822 204.204 213.198 204.204C212.022 204.204 211.146 204.408 210.57 204.816C210.018 205.224 209.742 205.764 209.742 206.436C209.742 206.94 209.91 207.36 210.246 207.696C210.582 208.032 211.098 208.26 211.794 208.38L215.394 209.064C216.954 209.352 218.13 209.88 218.922 210.648C219.738 211.416 220.146 212.448 220.146 213.744C220.146 215.496 219.462 216.876 218.094 217.884C216.726 218.868 214.902 219.36 212.622 219.36ZM230.2 219.36C229.168 219.36 228.076 219.252 226.924 219.036C225.772 218.82 224.74 218.448 223.828 217.92C223.444 217.68 223.168 217.404 223 217.092C222.856 216.756 222.796 216.432 222.82 216.12C222.868 215.784 222.988 215.496 223.18 215.256C223.396 215.016 223.66 214.86 223.972 214.788C224.308 214.716 224.668 214.776 225.052 214.968C226.012 215.424 226.912 215.748 227.752 215.94C228.592 216.108 229.42 216.192 230.236 216.192C231.388 216.192 232.24 216 232.792 215.616C233.368 215.208 233.656 214.68 233.656 214.032C233.656 213.48 233.464 213.06 233.08 212.772C232.72 212.46 232.168 212.232 231.424 212.088L227.824 211.404C226.336 211.116 225.196 210.576 224.404 209.784C223.636 208.968 223.252 207.924 223.252 206.652C223.252 205.5 223.564 204.504 224.188 203.664C224.836 202.824 225.724 202.176 226.852 201.72C227.98 201.264 229.276 201.036 230.74 201.036C231.796 201.036 232.78 201.156 233.692 201.396C234.628 201.612 235.528 201.96 236.392 202.44C236.752 202.632 236.992 202.884 237.112 203.196C237.256 203.508 237.292 203.832 237.22 204.168C237.148 204.48 237.004 204.768 236.788 205.032C236.572 205.272 236.296 205.428 235.96 205.5C235.648 205.548 235.288 205.476 234.88 205.284C234.136 204.9 233.416 204.624 232.72 204.456C232.048 204.288 231.4 204.204 230.776 204.204C229.6 204.204 228.724 204.408 228.148 204.816C227.596 205.224 227.32 205.764 227.32 206.436C227.32 206.94 227.488 207.36 227.824 207.696C228.16 208.032 228.676 208.26 229.372 208.38L232.972 209.064C234.532 209.352 235.708 209.88 236.5 210.648C237.316 211.416 237.724 212.448 237.724 213.744C237.724 215.496 237.04 216.876 235.672 217.884C234.304 218.868 232.48 219.36 230.2 219.36Z" fill="#29AAE1"/>
<defs>
<filter id="filter0_i_1715_4077" x="48" y="48" width="250" height="250" filterUnits="userSpaceOnUse" color-interpolation-filters="sRGB">
<feFlood flood-opacity="0" result="BackgroundImageFix"/>
<feBlend mode="normal" in="SourceGraphic" in2="BackgroundImageFix" result="shape"/>
<feColorMatrix in="SourceAlpha" type="matrix" values="0 0 0 0 0 0 0 0 0 0 0 0 0 0 0 0 0 0 127 0" result="hardAlpha"/>
<feOffset dx="7" dy="6"/>
<feGaussianBlur stdDeviation="2.5"/>
<feComposite in2="hardAlpha" operator="arithmetic" k2="-1" k3="1"/>
<feColorMatrix type="matrix" values="0 0 0 0 0 0 0 0 0 0 0 0 0 0 0 0 0 0 0.16 0"/>
<feBlend mode="normal" in2="shape" result="effect1_innerShadow_1715_4077"/>
</filter>
</defs>
</svg>
