<svg width="126" height="133" viewBox="0 0 126 133" fill="none" xmlns="http://www.w3.org/2000/svg">
<g filter="url(#filter0_d_4_2)">
<ellipse cx="62.8025" cy="65.2834" rx="56.8025" ry="60.2834" fill="white"/>
<path d="M118.105 65.2834C118.105 97.8339 93.2624 124.067 62.8025 124.067C32.3426 124.067 7.5 97.8339 7.5 65.2834C7.5 32.7329 32.3426 6.5 62.8025 6.5C93.2624 6.5 118.105 32.7329 118.105 65.2834Z" stroke="#29AAE1" stroke-width="3"/>
</g>
<path d="M55.9894 83.8841H33.8884C33.3692 83.9392 32.8443 83.8782 32.3517 83.7056C31.8591 83.5329 31.4112 83.253 31.0405 82.8861C30.6698 82.5192 30.3855 82.0745 30.2085 81.5843C30.0314 81.0941 29.9659 80.5707 30.0167 80.0521V45.9823C29.9675 45.4654 30.0327 44.944 30.2078 44.4551C30.3828 43.9661 30.6635 43.5216 31.0298 43.1529C31.3961 42.7842 31.8392 42.5004 32.3276 42.3216C32.816 42.1428 33.3378 42.0733 33.8561 42.1181H57.2154C57.4929 42.0687 57.7768 42.0687 58.0543 42.1181C58.3053 42.1795 58.5241 42.3327 58.6675 42.5473C58.8109 42.762 58.8684 43.0225 58.8286 43.2774C58.8142 43.532 58.7084 43.7729 58.5307 43.9562C58.353 44.1395 58.1152 44.2529 57.8607 44.2756C57.5712 44.3078 57.279 44.3078 56.9896 44.2756H34.3078C32.7592 44.2756 32.4688 44.5655 32.4688 46.0789V79.6013C32.4688 81.0182 32.7592 81.308 34.2111 81.308H87.576C88.9956 81.308 89.286 81.0181 89.286 79.6335V70.9711C89.2699 70.7352 89.2699 70.4985 89.286 70.2627C89.3019 70.1185 89.3465 69.9789 89.417 69.8521C89.4875 69.7252 89.5825 69.6136 89.6966 69.5237C89.8106 69.4339 89.9415 69.3675 90.0814 69.3285C90.2214 69.2895 90.3678 69.2787 90.512 69.2966C90.6532 69.2964 90.7929 69.325 90.9226 69.3808C91.0523 69.4365 91.1691 69.5182 91.2659 69.6208C91.3627 69.7234 91.4373 69.8448 91.4852 69.9773C91.5331 70.1099 91.5533 70.2508 91.5445 70.3915C91.5445 71.4542 91.5445 72.549 91.5445 73.6117C91.5445 75.737 91.5445 77.8624 91.5445 80.0521C91.5828 80.5411 91.5149 81.0327 91.3457 81.4932C91.1765 81.9538 90.9098 82.3725 90.5638 82.7208C90.2178 83.0692 89.8006 83.3391 89.3407 83.512C88.8808 83.685 88.3889 83.757 87.8986 83.7231H65.6041C65.6041 84.8824 65.6041 86.0095 65.6041 86.9433C65.6041 87.8772 65.7977 88.4246 65.8622 89.1653C65.9267 89.9059 66.1203 89.8737 66.6366 89.9059C71.0341 90.0969 75.3809 90.9212 79.5422 92.3532C80.5932 92.7597 81.617 93.233 82.6073 93.7701C82.7633 93.8283 82.905 93.9192 83.0228 94.0368C83.1405 94.1543 83.2315 94.2958 83.2897 94.4516C83.3478 94.6073 83.3717 94.7737 83.3597 94.9395C83.3477 95.1053 83.3002 95.2666 83.2203 95.4125C82.8977 96.0243 82.3169 96.1853 81.5426 95.7667C76.7619 93.5235 71.5631 92.3058 66.2816 92.1923C61.8863 91.8754 57.4719 91.9292 53.0856 92.3532C49.0919 92.6196 45.1632 93.4995 41.4382 94.9616C40.9064 95.1868 40.3891 95.4449 39.8895 95.7345C39.1475 96.1531 38.4699 96.0243 38.1473 95.4447C38.0606 95.2972 38.0068 95.1327 37.9894 94.9626C37.972 94.7925 37.9916 94.6207 38.0467 94.4588C38.1018 94.2969 38.1911 94.1487 38.3087 94.0243C38.4263 93.8999 38.5693 93.8023 38.728 93.738C40.5788 92.7028 42.5664 91.9331 44.6324 91.4516C47.9601 90.6001 51.3648 90.0823 54.7956 89.9059C55.3118 89.9059 55.5699 89.7127 55.5699 89.2296C55.7958 87.845 55.8926 85.8163 55.9894 83.8841ZM63.4746 90.0347L63.1843 83.9163H58.1188V90.0347H63.4746Z" fill="#29AAE1"/>
<path d="M61.0869 64.3053C61.135 63.8841 61.2437 63.4719 61.4096 63.0816C61.5455 62.8762 61.618 62.6355 61.618 62.3893C61.618 62.1431 61.5455 61.9024 61.4096 61.697C60.8611 60.4411 60.3771 59.153 59.8609 57.8971C59.7562 57.7032 59.5841 57.5544 59.3769 57.4785C58.7937 57.3635 58.2711 57.0435 57.904 56.5767C57.537 56.11 57.3498 55.5273 57.3765 54.9345C57.3765 54.0543 57.3765 53.1849 57.3765 52.3262C57.3742 51.7561 57.5638 51.2019 57.9149 50.7523C58.2659 50.3026 58.7581 49.9837 59.3124 49.8466C59.5225 49.7965 59.7065 49.6702 59.8286 49.4924C60.4094 48.1721 60.9256 46.8196 61.4741 45.4993C61.5701 45.3212 61.6204 45.122 61.6204 44.9197C61.6204 44.7174 61.5701 44.5182 61.4741 44.3401C61.2214 43.8876 61.1256 43.3645 61.2014 42.852C61.2773 42.3396 61.5206 41.8665 61.8935 41.5063C62.5066 40.83 63.1518 40.186 63.8294 39.5419C64.2414 39.1183 64.7867 38.8487 65.374 38.7784C65.9613 38.708 66.5551 38.8412 67.0558 39.1555C67.3155 39.2546 67.6027 39.2546 67.8624 39.1555C69.1852 38.6403 70.4758 38.0928 71.7664 37.5132C71.901 37.467 72.0233 37.3909 72.1239 37.2904C72.2245 37.19 72.3008 37.0679 72.3471 36.9336C72.4922 36.3723 72.8228 35.8762 73.2853 35.5256C73.7478 35.175 74.3153 34.9903 74.896 35.0015H77.4449C78.0373 34.9814 78.6178 35.1706 79.0841 35.5359C79.5503 35.9011 79.8725 36.4189 79.9937 36.998C80.0813 37.2264 80.255 37.4113 80.4777 37.5132C81.865 38.0928 83.2524 38.6081 84.6398 39.1233C84.752 39.1711 84.8727 39.1958 84.9947 39.1958C85.1167 39.1958 85.2374 39.1711 85.3496 39.1233C85.8553 38.8016 86.4604 38.6734 87.0534 38.7622C87.6463 38.8509 88.1872 39.1508 88.576 39.6064L90.3828 41.3775C90.7844 41.7671 91.0461 42.2778 91.1278 42.8307C91.2094 43.3836 91.1064 43.948 90.8345 44.4367C90.7234 44.7047 90.7234 45.0058 90.8345 45.2739C91.383 46.6908 91.9315 48.0755 92.5445 49.4602C92.5924 49.5462 92.657 49.6218 92.7346 49.6827C92.8121 49.7435 92.9011 49.7883 92.9962 49.8144C93.5873 49.9498 94.1118 50.2887 94.4776 50.7715C94.8434 51.2544 95.0271 51.8504 94.9966 52.4549V54.9023C95.012 55.4877 94.8245 56.0603 94.466 56.5238C94.1075 56.9872 93.5997 57.3131 93.0285 57.4463C92.8146 57.5072 92.6308 57.6448 92.5122 57.8327C91.9637 59.1852 91.4475 60.5377 90.8668 61.8902C90.7733 62.0517 90.7241 62.2349 90.7241 62.4215C90.7241 62.608 90.7733 62.7913 90.8668 62.9528C91.1345 63.3886 91.2482 63.9013 91.1898 64.4092C91.1313 64.917 90.9039 65.3906 90.5441 65.7544L88.4469 67.8475C88.0602 68.2128 87.5661 68.4444 87.0375 68.5082C86.5089 68.572 85.9737 68.4645 85.5109 68.2017C85.2423 68.0908 84.9406 68.0908 84.672 68.2017L80.7036 69.7475C80.4237 69.8752 80.2041 70.106 80.0905 70.3915C79.9481 70.942 79.6272 71.4301 79.1778 71.7795C78.7285 72.129 78.1759 72.3203 77.6062 72.3236H74.9928C74.4232 72.3393 73.8655 72.1591 73.4132 71.8132C72.9608 71.4673 72.6414 70.9767 72.5084 70.4237C72.5084 69.9728 72.1535 69.8763 71.7986 69.7475C70.5403 69.2644 69.3143 68.7492 68.0883 68.2017C67.9302 68.0978 67.7451 68.0425 67.5559 68.0425C67.3666 68.0425 67.1816 68.0978 67.0235 68.2017C66.5625 68.4969 66.0118 68.62 65.4687 68.5493C64.9256 68.4786 64.425 68.2187 64.0552 67.8153C63.3591 67.1904 62.7018 66.5237 62.0871 65.8188C61.6887 65.3602 61.3524 64.8514 61.0869 64.3053ZM88.7373 43.1486C88.092 42.5367 87.479 41.8927 86.8337 41.3453C86.7356 41.2887 86.6243 41.259 86.5111 41.259C86.3978 41.259 86.2866 41.2887 86.1885 41.3453C85.7922 41.5595 85.3486 41.6716 84.8979 41.6716C84.4472 41.6716 84.0036 41.5595 83.6073 41.3453C82.2522 40.7334 80.8004 40.2504 79.4453 39.6064C78.8645 39.3165 78.0901 38.8335 77.9611 38.2861C77.6384 37.1912 76.9932 37.1912 76.1543 37.2556H75.1218C74.7024 37.2556 74.5411 37.2556 74.4443 37.8031C74.3421 38.2491 74.1199 38.6588 73.8014 38.9879C73.483 39.3171 73.0806 39.5532 72.6375 39.6707C71.2824 40.1538 69.9596 40.7012 68.669 41.2808C68.2679 41.5324 67.8038 41.6659 67.3301 41.6659C66.8563 41.6659 66.3922 41.5324 65.9911 41.2808C65.6362 41.0554 65.4426 41.2808 65.1845 41.2808C64.9264 41.2808 64.2811 42.2147 63.8294 42.6655C63.3777 43.1164 63.4745 43.1164 63.8294 43.4384C64.0814 43.8388 64.2151 44.302 64.2151 44.7748C64.2151 45.2476 64.0814 45.7108 63.8294 46.1111C63.2163 47.3992 62.7001 48.7517 62.1839 50.072C61.9258 50.7805 61.6031 51.5211 60.8611 51.6821C60.119 51.8431 59.7641 52.616 59.7963 53.4532C59.7963 53.8075 59.7963 54.1938 59.7963 54.5159C59.8285 54.6379 59.8851 54.7522 59.9627 54.8519C60.0404 54.9515 60.1374 55.0344 60.248 55.0955C60.7228 55.2267 61.1546 55.4803 61.5 55.8307C61.8455 56.1812 62.0925 56.6162 62.2162 57.092C62.6241 58.3384 63.1201 59.5544 63.7003 60.7309C63.9863 61.1663 64.1386 61.6755 64.1386 62.1961C64.1386 62.7167 63.9863 63.2259 63.7003 63.6613C63.66 63.7469 63.6391 63.8404 63.6391 63.935C63.6391 64.0296 63.66 64.1231 63.7003 64.2087C64.2811 64.8849 64.9263 65.4968 65.5394 66.1408C65.937 65.7974 66.4252 65.5754 66.9458 65.5012C67.4664 65.427 67.9973 65.5037 68.4754 65.7222C69.895 66.3662 71.3792 66.8815 72.7666 67.5577C73.3473 67.8153 74.0894 68.2983 74.2184 68.8136C74.4765 69.9406 75.1541 69.9085 75.993 69.8441C76.8318 69.7797 76.735 69.8441 77.0899 69.8441C77.2122 69.812 77.3268 69.7555 77.4266 69.678C77.5264 69.6005 77.6095 69.5036 77.6707 69.3932C77.7927 68.9006 78.0509 68.4522 78.4161 68.0992C78.7812 67.7461 79.2385 67.5027 79.7356 67.3967C80.8526 67.0654 81.9335 66.6231 82.962 66.0764C83.438 65.7539 84 65.5814 84.5753 65.5814C85.1505 65.5814 85.7125 65.7539 86.1885 66.0764L88.3824 63.9511C88.0663 63.5495 87.8737 63.0649 87.8279 62.5563C87.782 62.0476 87.885 61.5366 88.1243 61.0851C88.7373 59.7004 89.3181 58.3157 89.8343 56.8988C89.9747 56.4897 90.2124 56.1207 90.5271 55.8234C90.8418 55.5261 91.2241 55.3095 91.6411 55.1921H92.1573V52.2296C90.6086 52.2296 89.9956 51.0059 89.6085 49.6534C89.2728 48.6068 88.8408 47.5935 88.3179 46.6264C87.9927 46.082 87.8574 45.4454 87.9333 44.8161C88.0092 44.1868 88.2919 43.6004 88.7373 43.1486Z" fill="#29AAE1"/>
<path d="M38.7926 71.4216L41.5028 74.1266C41.6906 74.2819 41.8635 74.4544 42.0191 74.6418C42.2143 74.8456 42.3233 75.1167 42.3233 75.3986C42.3233 75.6805 42.2143 75.9516 42.0191 76.1553C41.9195 76.2606 41.7995 76.3445 41.6664 76.4018C41.5332 76.4591 41.3897 76.4887 41.2447 76.4887C41.0997 76.4887 40.9562 76.4591 40.8231 76.4018C40.6899 76.3445 40.5699 76.2606 40.4704 76.1553C39.1153 74.8351 37.7602 73.4826 36.4374 72.1301C36.3369 72.0312 36.2571 71.9134 36.2026 71.7835C36.1482 71.6536 36.1201 71.5142 36.1201 71.3733C36.1201 71.2325 36.1482 71.0931 36.2026 70.9632C36.2571 70.8333 36.3369 70.7155 36.4374 70.6166C37.7279 69.2963 39.0508 67.976 40.3736 66.6879C40.5875 66.4744 40.8777 66.3545 41.1802 66.3545C41.4827 66.3545 41.7729 66.4744 41.9868 66.6879C42.2007 66.9014 42.3209 67.191 42.3209 67.493C42.3209 67.7949 42.2007 68.0845 41.9868 68.298C40.9221 69.3929 39.8896 70.359 38.7926 71.4216Z" fill="#29AAE1"/>
<path d="M57.0862 71.4542L54.1825 68.5882C53.5049 67.9119 53.4404 67.3001 53.9566 66.7849C54.4728 66.2696 55.1504 66.3018 55.8279 66.9781L59.2802 70.4559C59.4537 70.5626 59.5969 70.7118 59.6962 70.8893C59.7956 71.0669 59.8477 71.2669 59.8477 71.4702C59.8477 71.6736 59.7956 71.8736 59.6962 72.0512C59.5969 72.2287 59.4537 72.3779 59.2802 72.4846C58.1187 73.6439 56.9572 74.8354 55.7634 75.9947C55.1181 76.6387 54.4406 76.6709 53.9566 75.9947C53.4726 75.3184 53.5049 74.8676 54.1502 74.2235L57.0862 71.4542Z" fill="#29AAE1"/>
<path d="M50.0847 67.622C50.0847 67.8474 50.0847 68.0728 50.0847 68.2982C49.504 70.6168 48.9555 72.9032 48.3747 75.1895L48.1812 75.8335C48.0673 76.0892 47.8621 76.2934 47.6057 76.4065C47.3493 76.5196 47.0599 76.5335 46.7938 76.4454C46.52 76.3769 46.2847 76.2028 46.1395 75.9613C45.9943 75.7198 45.9512 75.4306 46.0195 75.1573C46.6325 72.5167 47.31 69.8439 47.9876 67.2034C48.0248 67.0675 48.0887 66.9403 48.1756 66.8293C48.2625 66.7183 48.3706 66.6257 48.4937 66.5568C48.6168 66.4879 48.7524 66.444 48.8926 66.4279C49.0328 66.4118 49.1748 66.4236 49.3104 66.4627C49.545 66.5504 49.7461 66.7096 49.8851 66.9176C50.024 67.1257 50.0939 67.3721 50.0847 67.622Z" fill="#29AAE1"/>
<path d="M87.0274 53.7106C87.0208 55.8751 86.3696 57.9888 85.1566 59.7831C83.9436 61.5773 82.2235 62.9712 80.215 63.7875C78.2065 64.6039 76.0001 64.8059 73.8763 64.3678C71.7525 63.9298 69.8071 62.8714 68.2873 61.3273C66.7675 59.7832 65.742 57.823 65.341 55.6959C64.94 53.5687 65.1815 51.3705 66.0351 49.3807C66.8886 47.3909 68.3156 45.6992 70.1347 44.5207C71.9537 43.3422 74.0827 42.73 76.2512 42.7619C79.1322 42.7959 81.8827 43.9665 83.9018 46.0179C85.921 48.0694 87.0446 50.8349 87.0274 53.7106ZM84.7044 53.7106C84.6974 51.9956 84.1786 50.3216 83.2142 48.9022C82.2499 47.4828 80.8836 46.3823 79.2899 45.7413C77.6962 45.1002 75.9473 44.9476 74.2663 45.3029C72.5852 45.6582 71.0484 46.5053 69.8518 47.7361C68.6553 48.9669 67.8534 50.5257 67.5483 52.2135C67.2432 53.9012 67.4488 55.6414 68.1389 57.212C68.8291 58.7825 69.9723 60.1122 71.423 61.0315C72.8736 61.9507 74.5657 62.4177 76.2834 62.3729C77.4146 62.3563 78.5312 62.1158 79.5685 61.6653C80.6059 61.2149 81.5433 60.5634 82.3266 59.7487C83.1099 58.934 83.7233 57.9723 84.1315 56.9192C84.5397 55.8662 84.7344 54.7427 84.7044 53.614V53.7106Z" fill="#29AAE1"/>
<defs>
<filter id="filter0_d_4_2" x="0" y="0" width="125.605" height="132.566" filterUnits="userSpaceOnUse" color-interpolation-filters="sRGB">
<feFlood flood-opacity="0" result="BackgroundImageFix"/>
<feColorMatrix in="SourceAlpha" type="matrix" values="0 0 0 0 0 0 0 0 0 0 0 0 0 0 0 0 0 0 127 0" result="hardAlpha"/>
<feOffset dy="1"/>
<feGaussianBlur stdDeviation="3"/>
<feComposite in2="hardAlpha" operator="out"/>
<feColorMatrix type="matrix" values="0 0 0 0 0.27451 0 0 0 0 0.72549 0 0 0 0 0.917647 0 0 0 0.42 0"/>
<feBlend mode="normal" in2="BackgroundImageFix" result="effect1_dropShadow_4_2"/>
<feBlend mode="normal" in="SourceGraphic" in2="effect1_dropShadow_4_2" result="shape"/>
</filter>
</defs>
</svg>
