<svg width="109" height="109" viewBox="0 0 109 109" fill="none" xmlns="http://www.w3.org/2000/svg">
<path d="M108.172 57.6362C107.898 59.6426 107.624 61.649 107.305 63.701C107.305 64.7042 106.94 65.7529 106.712 66.8017C106.679 67.0186 106.603 67.2267 106.488 67.4137C106.373 67.6006 106.222 67.7627 106.044 67.8902C105.865 68.0177 105.663 68.1081 105.449 68.1562C105.235 68.2042 105.013 68.2088 104.797 68.1697C104.573 68.1241 104.362 68.0311 104.177 67.8968C103.992 67.7624 103.839 67.59 103.726 67.3911C103.614 67.1923 103.545 66.9717 103.526 66.7441C103.506 66.5166 103.535 66.2874 103.612 66.0721C105.865 56.591 105.343 46.6618 102.109 37.4689C98.875 28.276 93.0649 20.2074 85.3717 14.2254C78.3711 8.56944 69.9448 4.95597 61.0216 3.78317C53.9278 2.75126 46.6947 3.26458 39.8178 5.28797C38.6778 5.60716 38.1762 6.2911 38.4498 7.1575C38.7234 8.02389 39.453 8.34309 40.5929 8.0239C51.0134 5.047 62.1341 5.67928 72.15 9.81807C82.1659 13.9569 90.489 21.3592 95.7684 30.8237C100.849 39.3543 102.95 49.3315 101.742 59.1866C100.736 71.0998 95.3304 82.2116 86.5784 90.3564C77.8264 98.5011 66.3552 103.095 54.4006 103.243C42.4459 103.391 30.8644 99.0825 21.9135 91.1569C12.9625 83.2314 7.28336 72.2568 5.9829 60.3722C5.9829 59.6882 5.9829 58.9586 5.9829 58.2746C5.93711 58.0486 5.93942 57.8155 5.98972 57.5905C6.04003 57.3654 6.1372 57.1535 6.27486 56.9685C6.41252 56.7836 6.58759 56.6296 6.7887 56.5168C6.98982 56.404 7.21243 56.3348 7.44205 56.3138C8.35405 56.3138 9.03809 56.861 9.12928 58.0466C9.53785 63.7536 11.0885 69.3204 13.6892 74.4168C16.8617 80.9493 21.6047 86.5931 27.4937 90.8427C33.3826 95.0922 40.2335 97.815 47.4329 98.767C57.7835 100.303 68.3449 98.1648 77.2836 92.7249C86.2222 87.285 92.9735 78.8865 96.3653 68.9876C99.757 59.0887 99.575 48.3145 95.8508 38.5359C92.1266 28.7572 85.0956 20.5915 75.9782 15.4566C70.8471 12.4033 65.1407 10.4426 59.2166 9.69714C53.2924 8.95172 47.2781 9.43773 41.5505 11.1247C40.8952 11.4072 40.1828 11.532 39.4706 11.489C38.7583 11.4459 38.066 11.2363 37.4495 10.8771C36.833 10.5178 36.3093 10.0189 35.9208 9.42036C35.5322 8.82185 35.2894 8.14053 35.2122 7.43115C35.0932 6.3672 35.3524 5.29526 35.9443 4.4032C36.5363 3.51114 37.4232 2.85581 38.4498 2.55197C41.9609 1.73117 45.5633 1.18399 49.12 0.5H50.4425H57.2368C57.5404 0.522058 57.8452 0.522058 58.1488 0.5C62.0256 0.747809 65.8558 1.48318 69.5487 2.68876C79.1707 5.5522 87.7967 11.0569 94.4467 18.5775C101.097 26.0981 105.504 35.333 107.168 45.2332C107.579 47.1939 107.715 49.1547 107.989 51.0699L108.172 57.6362Z" fill="#FCFCFC"/>
<path d="M63.6629 23.4822C66.8542 27.7972 69.1772 32.691 70.5028 37.8917L80.398 35.6573C79.6228 34.6997 78.8019 33.6509 77.9356 32.6478C77.0692 31.6446 76.7955 31.4165 76.2028 30.8237C75.61 30.2309 75.2452 29.0453 75.9292 28.3157C76.6132 27.5862 77.4795 27.723 78.3459 28.3157C83.917 33.4974 87.6201 40.3746 88.8794 47.878C90.0704 54.6606 89.2564 61.6433 86.5372 67.9701C83.818 74.2969 79.3117 79.6928 73.571 83.4962C67.8302 87.2996 61.1044 89.3452 54.2182 89.3824C47.3319 89.4195 40.5844 87.4465 34.803 83.7053C29.0216 79.964 24.4575 74.617 21.6702 68.3199C18.8829 62.0228 17.9936 55.0493 19.1113 48.2542C20.2291 41.4591 23.3053 35.1379 27.9628 30.0654C32.6203 24.9929 38.6566 21.3897 45.3318 19.6974C54.1292 17.3863 63.4827 18.6313 71.3692 23.163C71.8252 23.4366 72.418 23.8014 72.5548 24.2574C72.6117 24.5588 72.6045 24.8689 72.5338 25.1674C72.4631 25.4659 72.3305 25.7463 72.1445 25.9902C71.6885 26.583 70.9132 26.4462 70.2292 25.9902L65.4413 23.7558C64.8941 23.847 64.2557 23.7102 63.6629 23.4822ZM54.0414 74.0065C57.9574 74.0065 61.7855 72.8447 65.041 70.6681C68.2964 68.4915 70.8329 65.398 72.3294 61.7791C73.8259 58.1603 74.2153 54.1788 73.448 50.3387C72.6807 46.4985 70.7912 42.9723 68.019 40.2064C65.2467 37.4405 61.7162 35.5593 57.8743 34.8008C54.0324 34.0424 50.0517 34.4408 46.4363 35.9457C42.821 37.4506 39.7333 39.9942 37.5642 43.2547C35.3951 46.5151 34.2422 50.3458 34.2512 54.2619C34.2633 59.5027 36.3536 64.5247 40.0637 68.2262C43.7738 71.9277 48.8006 74.0065 54.0414 74.0065ZM21.8481 52.5747H30.968C31.2937 48.2995 32.7927 44.197 35.2999 40.7188C32.3574 39.7122 29.2867 39.1288 26.18 38.9861C25.9897 39.0167 25.8088 39.09 25.6508 39.2006C25.4929 39.3112 25.362 39.4561 25.2681 39.6245C24.6753 40.8557 24.0825 42.1324 23.5809 43.4548C22.506 46.4262 21.9207 49.5525 21.8481 52.7115V52.5747ZM21.8481 55.8579C21.8214 56.3896 21.8214 56.9222 21.8481 57.4539C22.1732 61.0985 23.1623 64.653 24.7665 67.9418C25.7241 69.9481 25.2224 69.5378 27.2288 69.4466C27.8511 69.4938 28.4761 69.4938 29.0984 69.4466L35.4824 68.033C32.8892 64.5304 31.3115 60.3809 30.9224 56.0403L21.8481 55.8579ZM86.417 55.8579H76.9324C76.5848 60.1144 75.0874 64.1965 72.6003 67.6682C75.5283 68.7353 78.6059 69.3354 81.7203 69.4466C81.9036 69.4127 82.0769 69.3376 82.2269 69.227C82.377 69.1165 82.5 68.9732 82.5867 68.8082C83.4877 66.8527 84.2645 64.8424 84.9123 62.7891C85.6875 60.6003 85.961 58.2747 86.417 55.9035V55.8579ZM86.417 52.5292C86.3153 48.9661 85.5417 45.4542 84.137 42.178C82.3586 38.2109 83.4531 38.7124 79.1212 39.214C77.0236 39.4876 74.926 40.0805 72.9652 40.5365C75.2745 44.1876 76.8253 48.2661 77.5252 52.5292H86.417ZM70.7764 70.769C70.2292 72.365 69.6821 74.1434 68.9981 75.8305C68.3498 77.4921 67.588 79.1071 66.7181 80.6641C65.8061 82.2145 64.7573 83.6281 63.6629 85.224C70.4887 83.1141 76.4324 78.8204 80.5803 73.0033L70.7764 70.769ZM37.6256 37.9829C38.5832 35.5205 39.4039 32.9669 40.5439 30.5046C41.6839 28.0422 43.2799 25.9446 44.5567 23.7102C37.8387 25.7652 32.0082 30.0217 28.0041 35.7941L37.6256 37.9829ZM27.9584 72.8665C32.0443 78.7742 38.0312 83.1034 44.9215 85.1328C41.4803 80.8957 39.0338 75.9404 37.7624 70.6321C35.984 71.0881 34.4335 71.5898 32.792 71.9545C31.1504 72.3193 29.3264 72.4105 27.7304 72.7297L27.9584 72.8665ZM66.3076 34.8365C64.3924 29.1822 60.1973 23.0718 55.9565 22.479V31.5989C59.5218 31.8548 62.9827 32.9149 66.0796 34.6997L66.3076 34.8365ZM42.0943 73.8697C43.1467 77.1155 44.8539 80.1109 47.1102 82.6705C48.438 83.9043 49.8724 85.0182 51.3966 85.9992C51.7681 86.1876 52.1691 86.311 52.5822 86.364V77.2441C48.7847 76.9283 45.1143 75.7257 41.8663 73.7329L42.0943 73.8697ZM42.0943 34.8365C45.2159 32.9522 48.7235 31.7985 52.3542 31.4621V22.3422C48.4782 22.935 43.3255 29.091 42.0487 34.6997L42.0943 34.8365ZM55.7742 77.2897V85.3608C55.7518 85.6644 55.7518 85.9692 55.7742 86.2728C59.4221 85.9536 64.8941 79.2505 66.0796 73.9609C62.8845 75.8375 59.2906 76.9312 55.5917 77.1529L55.7742 77.2897Z" fill="#FCFCFC"/>
<path d="M24.1311 14.1329L12.9592 15.3641V15.6377L15.3303 17.8266C16.6983 19.1489 16.6983 19.6961 15.3303 21.1553C9.83745 27.3906 6.06542 34.9504 4.38644 43.0887C2.18304 52.1938 2.60252 61.7366 5.59636 70.6132C8.5902 79.4899 14.0361 87.3375 21.3039 93.2482C25.9219 97.4049 31.3181 100.605 37.1804 102.663C43.0427 104.722 49.255 105.598 55.4579 105.241C65.2485 105.16 74.7976 102.192 82.909 96.7088C91.0204 91.2255 97.3336 83.4706 101.058 74.4155C101.058 74.0507 101.377 73.686 101.513 73.3668C102.015 72.3636 102.79 71.9988 103.657 72.3636C103.862 72.4508 104.046 72.58 104.198 72.7429C104.35 72.9057 104.466 73.0985 104.539 73.3089C104.612 73.5194 104.641 73.7429 104.622 73.9649C104.604 74.1869 104.539 74.4025 104.432 74.598C103.976 75.6924 103.52 76.8324 102.973 77.8811C99.2658 85.7958 93.6572 92.6696 86.6474 97.8892C79.6375 103.109 71.4445 106.512 62.7995 107.794C48.8633 110.07 34.5904 106.795 23.0404 98.6713C11.4904 90.5479 3.58249 78.2228 1.01205 64.3381C-0.497794 56.7344 -0.316338 48.8916 1.54343 41.3659C3.4032 33.8401 6.89574 26.8157 11.7735 20.7905L12.4119 19.9697V19.5593L10.1776 17.4617C9.75949 17.1069 9.4577 16.6345 9.31134 16.106C9.16498 15.5775 9.18077 15.0171 9.35678 14.4977C9.50542 13.9435 9.82187 13.4488 10.2627 13.0814C10.7035 12.7141 11.2472 12.492 11.8192 12.4458C15.9688 11.9898 20.0727 11.4882 24.2223 11.0778C24.6443 11.0337 25.0707 11.0852 25.4701 11.2285C25.8695 11.3717 26.2316 11.603 26.5294 11.9052C26.8272 12.2074 27.0531 12.5728 27.1905 12.9742C27.3279 13.3757 27.3732 13.8028 27.323 14.2242C26.9126 18.3737 26.411 22.4777 25.955 26.6272C25.8865 27.1704 25.6667 27.6833 25.3206 28.1074C24.9745 28.5315 24.516 28.8497 23.9977 29.0257C23.4793 29.2017 22.9218 29.2283 22.3891 29.1025C21.8563 28.9767 21.3696 28.7036 20.9847 28.3144L18.9327 26.0801C17.5647 28.1776 16.2424 30.0016 15.1024 31.9624C11.9348 37.3606 9.97463 43.3811 9.35678 49.6094V50.5214C9.35678 51.6158 8.53599 52.163 7.5784 52.0718C7.35963 52.0333 7.15065 51.9519 6.96339 51.8324C6.77612 51.713 6.61428 51.5577 6.48718 51.3755C6.36008 51.1933 6.2702 50.9879 6.22271 50.7709C6.17522 50.5539 6.17101 50.3296 6.2104 50.111C6.56336 46.4386 7.31254 42.8152 8.4448 39.3039C10.4028 33.421 13.502 27.9821 17.5647 23.2985C18.6135 22.0673 19.4343 22.0217 20.5743 23.2985L22.8087 25.5328H23.1279L24.1311 14.1329Z" fill="#FCFCFC"/>
<path d="M56.411 55.856L57.5054 54.8072C58.1277 54.2368 58.9412 53.9204 59.7854 53.9204C60.6295 53.9204 61.443 54.2368 62.0653 54.8072C63.4789 56.1752 64.8926 57.5432 66.2606 59.0023C66.7841 59.5291 67.1106 60.2199 67.1853 60.9588C67.26 61.6977 67.0784 62.4398 66.6709 63.0607C65.526 64.9119 63.7568 66.2925 61.6828 66.9531C59.6088 67.6138 57.367 67.5109 55.3623 66.663C54.1765 66.1111 53.0593 65.4225 52.0335 64.6111C50.8023 63.6991 49.6167 62.6959 48.4311 61.6927C47.2455 60.6895 47.1999 59.8687 47.9295 59.0935C48.6591 58.3183 49.5255 58.5007 50.6199 59.4127C52.0785 60.6607 53.6005 61.8327 55.1798 62.9239C55.858 63.4608 56.6454 63.8428 57.4869 64.0431C58.3283 64.2434 59.2034 64.2571 60.0507 64.0832C60.8981 63.9094 61.697 63.5524 62.3917 63.037C63.0863 62.5216 63.6597 61.8604 64.0717 61.0999L59.5118 56.5399C59.0286 57.2194 58.5112 57.8739 57.9614 58.5007C57.832 58.6716 57.6696 58.8146 57.4837 58.9212C57.2978 59.0279 57.0922 59.0959 56.8795 59.1215C56.6667 59.147 56.451 59.1294 56.2452 59.0698C56.0393 59.0101 55.8476 58.9097 55.6814 58.7743C53.0662 57.1619 50.8643 54.96 49.2519 52.3448C49.1081 52.1737 49.0008 51.9752 48.9364 51.7612C48.8721 51.5471 48.8521 51.3222 48.8777 51.1002C48.9033 50.8782 48.9739 50.6638 49.0853 50.4701C49.1967 50.2764 49.3465 50.1074 49.5255 49.9736L51.1671 48.56L46.6071 44.0001C45.9197 44.4113 45.3252 44.9607 44.861 45.6134C44.3968 46.2661 44.073 47.0081 43.9101 47.7923C43.7473 48.5766 43.7489 49.3861 43.9149 50.1697C44.0808 50.9533 44.4076 51.6939 44.8744 52.3448C45.1024 52.7096 45.3759 53.0744 45.5583 53.4392C45.7454 53.7866 45.7929 54.1923 45.6912 54.5736C45.5896 54.9548 45.3464 55.283 45.0112 55.4912C44.8584 55.6124 44.6821 55.7007 44.4935 55.7505C44.3049 55.8003 44.1081 55.8105 43.9154 55.7805C43.7226 55.7506 43.5382 55.681 43.3736 55.5763C43.2091 55.4715 43.068 55.3338 42.9592 55.1719C41.6242 53.5348 40.899 51.485 40.9073 49.3726C40.9156 47.2602 41.657 45.2162 43.0048 43.5897C43.5395 42.9277 44.1349 42.3171 44.7831 41.7657C45.4005 41.1854 46.2159 40.8623 47.0631 40.8623C47.9104 40.8623 48.7258 41.1854 49.3431 41.7657C50.7567 43.0881 52.1703 44.5017 53.5383 45.9609C54.1186 46.5782 54.4417 47.3936 54.4417 48.2409C54.4417 49.0881 54.1186 49.9035 53.5383 50.5208C53.2483 50.896 52.9281 51.2468 52.5807 51.5696L56.411 55.856Z" fill="#FCFCFC"/>
</svg>
