<svg width="108" height="109" viewBox="0 0 108 109" fill="none" xmlns="http://www.w3.org/2000/svg">
<path d="M79.8659 76.9701L84.8574 72.6774C83.4357 70.7951 82.7838 68.4422 83.0341 66.0967C83.2844 63.7511 84.4181 61.5888 86.205 60.0489C87.8221 58.7184 89.8511 57.9909 91.9452 57.9909C94.0393 57.9909 96.0685 58.7184 97.6856 60.0489C99.4936 61.575 100.643 63.7401 100.894 66.0927C101.145 68.4454 100.478 70.8041 99.0332 72.6774C100.401 73.7795 101.701 74.963 102.927 76.2215C104.446 78.0584 105.52 80.2214 106.065 82.5418C106.611 84.8622 106.613 87.2773 106.071 89.5987C105.694 91.3047 104.756 92.8356 103.409 93.948C102.061 95.0604 100.381 95.6905 98.634 95.7382C94.1915 95.7382 89.6991 95.7382 85.2566 95.7382C83.8608 95.5779 82.4878 95.2598 81.1637 94.7899V100.181C81.1676 101.302 81.0672 102.422 80.8641 103.525C80.661 104.372 80.2897 105.169 79.7722 105.869C79.2546 106.569 78.6016 107.158 77.8518 107.6C77.1019 108.043 76.2706 108.33 75.4075 108.444C74.5444 108.559 73.6671 108.499 72.8278 108.267C69.3337 107.568 65.9395 106.52 62.4953 105.621L55.0081 103.625C54.4302 103.522 53.8388 103.522 53.261 103.625C47.8202 105.072 42.3795 106.57 36.8888 107.967C35.6673 108.281 34.4037 108.399 33.1452 108.317C31.4676 108.201 29.9032 107.429 28.7912 106.168C27.6792 104.906 27.1094 103.257 27.2053 101.578C27.2053 99.2822 27.2053 96.9861 27.2053 94.4404C24.8306 95.6875 22.1249 96.1588 19.4685 95.7882C16.7232 95.7882 13.9779 95.7882 11.2325 95.7882C9.97792 95.9138 8.71105 95.7583 7.52409 95.3329C6.33713 94.9075 5.25992 94.2229 4.37073 93.3289C3.48154 92.4349 2.80278 91.354 2.38375 90.1648C1.96472 88.9756 1.81588 87.7079 1.94824 86.454C1.83271 82.6459 3.13074 78.9298 5.5921 76.0217C6.78187 74.8279 8.03135 73.695 9.33573 72.6276C8.4393 71.4974 7.8265 70.169 7.54861 68.7535C7.27072 67.338 7.33579 65.8765 7.73841 64.4914C8.32061 62.4471 9.6126 60.6773 11.3823 59.4998C13.1677 58.2607 15.3417 57.7107 17.5016 57.9518C19.6615 58.1929 21.661 59.2087 23.1293 60.811C24.5976 62.4133 25.4352 64.4935 25.4872 66.6662C25.5391 68.8389 24.8019 70.9569 23.4118 72.6276L28.4034 76.9203C29.2519 75.1732 30.2003 73.2265 31.0988 71.2798C31.1592 71.1378 31.1902 70.985 31.1902 70.8306C31.1902 70.6762 31.1592 70.5234 31.0988 70.3813C30.4899 69.6361 30.1094 68.7308 30.0031 67.7744C29.8968 66.8179 30.0693 65.8512 30.4997 64.9905C30.9246 63.5498 30.8445 62.007 30.2726 60.6181C29.7007 59.2291 28.6714 58.0774 27.3552 57.3535C26.4355 57.0636 25.6288 56.4945 25.0474 55.7252C24.466 54.9559 24.1385 54.0247 24.1106 53.0608C23.9976 51.3989 23.9976 49.7312 24.1106 48.0693C24.183 47.3176 24.4647 46.6012 24.9234 46.0013C25.3821 45.4014 25.9998 44.9419 26.7063 44.675C28.2618 44.0025 29.4954 42.7523 30.1472 41.188C30.799 39.6237 30.818 37.8674 30.2002 36.2893C29.8585 35.5938 29.7239 34.8146 29.8124 34.0447C29.9009 33.2748 30.2088 32.5465 30.6994 31.9467C31.9938 30.4029 33.3948 28.9518 34.8923 27.6041C35.4961 27.1628 36.2015 26.8811 36.9432 26.7852C37.6849 26.6892 38.4388 26.782 39.1351 27.055C40.6569 27.5891 42.323 27.5373 43.8087 26.9098C45.2944 26.2823 46.4932 25.1241 47.1713 23.6608C47.4443 22.8326 47.9632 22.1071 48.6587 21.581C49.3542 21.0549 50.1936 20.7531 51.0649 20.7158C53.0753 20.5661 55.0941 20.5661 57.1046 20.7158C57.9702 20.7729 58.8001 21.0822 59.492 21.6056C60.1839 22.1289 60.7074 22.8434 60.9979 23.6608C61.6768 25.1356 62.8839 26.3023 64.3809 26.9306C65.8779 27.559 67.556 27.6034 69.0842 27.055C69.9017 26.6786 70.8126 26.5536 71.7013 26.6958C72.59 26.838 73.4164 27.241 74.0757 27.8537C75.3433 28.9633 76.5278 30.1645 77.6196 31.4476C78.2044 32.1239 78.5816 32.9547 78.7056 33.8402C78.8295 34.7257 78.6951 35.6281 78.3185 36.4391C77.7914 37.9426 77.8359 39.5874 78.4434 41.0602C79.0509 42.533 80.1791 43.7308 81.6129 44.4254C82.453 44.7257 83.1832 45.272 83.7085 45.9931C84.2338 46.7143 84.5297 47.5769 84.5579 48.4686C84.6827 50.2134 84.6827 51.9649 84.5579 53.7097C84.5059 54.4987 84.2291 55.2564 83.7603 55.8932C83.2915 56.5301 82.6503 57.0195 81.9124 57.3036C80.3574 57.9753 79.1265 59.2284 78.483 60.7952C77.8395 62.3621 77.8342 64.1186 78.4682 65.6894C78.7773 66.4435 78.8801 67.2663 78.766 68.0734C78.652 68.8804 78.3253 69.6425 77.8193 70.2815C77.3202 70.8805 77.42 71.2798 77.8193 71.9287C78.3684 73.6259 79.0672 75.4228 79.8659 76.9701ZM37.7874 91.9447V85.3559C37.7874 83.9083 38.4362 83.1596 39.5843 83.1596C40.7323 83.1596 41.3813 83.9083 41.3813 85.3559V91.0961L66.3389 84.707C66.7881 83.559 67.4869 82.96 68.4352 83.1596C69.3836 83.3593 69.9327 84.2078 69.9826 85.3559C70.0992 85.7841 70.3429 86.167 70.6815 86.454C72.2361 87.6659 73.246 89.4454 73.4894 91.4016C73.7327 93.3577 73.1895 95.3304 71.9792 96.8863C70.6764 98.3613 68.9207 99.362 66.9877 99.7314L61.0479 101.329C64.9912 102.577 68.9345 103.725 72.8778 104.623C75.6231 105.222 77.1205 103.874 77.1704 101.029V84.5073C77.0944 79.9112 75.667 75.4392 73.0662 71.6489C70.4654 67.8587 66.8064 64.918 62.5453 63.1936C62.2691 63.045 61.9604 62.9673 61.6469 62.9673C61.3333 62.9673 61.0244 63.045 60.7483 63.1936C58.6329 64.4208 56.2308 65.0671 53.7852 65.0671C51.3396 65.0671 48.9375 64.4208 46.8221 63.1936C46.5489 63.0359 46.2389 62.9528 45.9235 62.9528C45.608 62.9528 45.2982 63.0359 45.025 63.1936C40.764 64.918 37.1049 67.8587 34.5041 71.6489C31.9033 75.4392 30.4759 79.9112 30.3999 84.5073C30.3999 89.998 30.3999 95.5386 30.3999 101.029C30.3999 103.874 31.8475 105.072 34.6427 104.623C34.9249 104.651 35.2091 104.651 35.4912 104.623L67.1374 96.0378C68.0813 95.7107 68.8893 95.0784 69.4336 94.2408C69.8789 93.6705 70.1206 92.9677 70.1206 92.2442C70.1206 91.5206 69.8789 90.8179 69.4336 90.2476C69.0333 89.6256 68.4433 89.1489 67.7511 88.8882C67.0589 88.6275 66.3012 88.5966 65.59 88.8L48.9184 93.0428L38.4862 95.7382C38.2518 95.8406 37.9982 95.8918 37.7425 95.8884C37.4867 95.885 37.2348 95.8269 37.0032 95.7183C36.7717 95.6096 36.5661 95.4528 36.4 95.2582C36.234 95.0637 36.1113 94.8359 36.0404 94.5902C35.7409 93.5919 36.0404 92.7933 37.438 92.2941L37.7874 91.9447ZM43.0784 60.1987C41.8163 58.7508 40.8605 57.0623 40.2686 55.2351C39.6766 53.4078 39.4609 51.4796 39.6343 49.5667C39.7298 47.6478 40.2228 45.7697 41.082 44.0513C41.9412 42.3328 43.148 40.8115 44.6258 39.5837C47.2016 37.4089 50.464 36.216 53.8351 36.216C57.2062 36.216 60.4686 37.4089 63.0445 39.5837C65.6517 41.6545 67.4241 44.5967 68.036 47.8696C68.4567 50.0285 68.3834 52.2546 67.8215 54.3811C67.2596 56.5077 66.2238 58.4795 64.7915 60.1488C68.5862 61.8858 71.984 64.3832 74.7746 67.4863C74.7787 67.0575 74.6936 66.6326 74.5249 66.2384C73.9365 64.9056 73.7795 63.4221 74.0757 61.9956C74.256 60.4352 74.802 58.9393 75.6693 57.6296C76.5367 56.32 77.7009 55.2335 79.0672 54.4584C79.6946 54.2336 80.2233 53.7956 80.5608 53.2209C80.8983 52.6462 81.0233 51.9712 80.914 51.3138C80.914 50.6649 80.914 49.9661 80.914 49.3172C80.9241 48.9109 80.8034 48.5122 80.5698 48.1797C80.3361 47.8472 80.0018 47.5985 79.6162 47.4703C77.61 46.4148 76.0228 44.7079 75.1156 42.6305C74.2084 40.553 74.0353 38.2287 74.6247 36.0397C74.949 35.3782 75.0267 34.6226 74.8437 33.9089C74.6607 33.1952 74.2291 32.5703 73.6265 32.1464C73.106 31.55 72.5199 31.0141 71.8794 30.549C71.6268 30.442 71.3551 30.3868 71.0807 30.3868C70.8063 30.3868 70.5347 30.442 70.2821 30.549C67.9049 31.28 65.3464 31.1503 63.0553 30.1828C60.7642 29.2152 58.8871 27.4716 57.7535 25.2581C57.6434 25.002 57.4719 24.7769 57.2543 24.6028C57.0367 24.4287 56.7796 24.3109 56.5056 24.2598C55.059 24.1849 53.6094 24.1849 52.1629 24.2598C51.7457 24.2395 51.3353 24.3693 51.0056 24.6257C50.676 24.8821 50.449 25.2481 50.366 25.6574C49.3012 27.6416 47.6201 29.2258 45.5763 30.1712C43.5325 31.1166 41.2368 31.3718 39.0353 30.8985C38.3931 30.5584 37.6465 30.4723 36.9437 30.6572C36.2409 30.8421 35.6333 31.2846 35.2417 31.8968L33.7443 33.544C33.484 33.7883 33.313 34.1128 33.2587 34.4657C33.2044 34.8185 33.2699 35.1794 33.4447 35.4907C34.1041 36.8915 34.2797 38.4716 33.9439 39.983C33.7635 41.5434 33.2175 43.0393 32.3502 44.349C31.4829 45.6587 30.3187 46.7452 28.9523 47.5202C28.3382 47.7445 27.8221 48.1769 27.4938 48.7423C27.1655 49.3077 27.0458 49.9704 27.1555 50.615C27.1555 51.3637 27.1555 52.1124 27.1555 52.8611C27.1363 53.2198 27.2468 53.5735 27.4667 53.8576C27.6866 54.1416 28.0013 54.3371 28.3534 54.4085C30.4726 55.5669 32.1269 57.4216 33.0364 59.659C33.9459 61.8963 34.0549 64.3792 33.3449 66.6876C33.1927 67.072 33.092 67.4748 33.0454 67.8856C35.8665 64.7432 39.2748 62.1828 43.0784 60.3484V60.1987ZM64.7416 50.7148C64.7317 48.5824 64.0896 46.5008 62.8967 44.7333C61.7038 42.9658 60.0135 41.5918 58.0397 40.7849C56.0659 39.978 53.8971 39.7745 51.8076 40.2001C49.7181 40.6258 47.8018 41.6616 46.3009 43.1764C44.8001 44.6912 43.7822 46.6171 43.3759 48.7104C42.9696 50.8037 43.1931 52.9705 44.0183 54.9368C44.8434 56.9031 46.233 58.5806 48.0114 59.7571C49.7899 60.9335 51.8775 61.5562 54.0098 61.5464C56.8395 61.5206 59.5467 60.3885 61.5523 58.3922C63.5579 56.3959 64.7026 53.694 64.7416 50.8645V50.7148ZM16.1243 92.0944H22.4135C23.0137 92.1081 23.6106 91.9999 24.1678 91.7764C24.7251 91.553 25.2313 91.219 25.6558 90.7944C26.0803 90.3699 26.4144 89.8637 26.6379 89.3064C26.8613 88.7492 26.9694 88.1524 26.9558 87.5521C27.0057 86.6877 27.0057 85.8211 26.9558 84.9566C26.888 82.9415 26.2459 80.9877 25.1051 79.3252C23.9644 77.6627 22.3724 76.3608 20.5167 75.5725C19.9892 75.4702 19.447 75.4702 18.9195 75.5725C17.3467 75.7958 15.7503 75.7958 14.1775 75.5725C13.4993 75.4007 12.7904 75.3879 12.1064 75.5351C11.4224 75.6822 10.7817 75.9855 10.2342 76.4211C9.14432 77.0876 8.19871 77.9652 7.45295 79.0024C6.70719 80.0396 6.17635 81.2155 5.89158 82.4608C5.54765 84.1021 5.38029 85.7755 5.3924 87.4524C5.36341 88.0739 5.46535 88.6946 5.69157 89.2743C5.91779 89.854 6.26328 90.3797 6.70562 90.8173C7.14797 91.2549 7.67732 91.5948 8.25938 91.8148C8.84144 92.0348 9.4632 92.1301 10.0844 92.0944H16.1243ZM91.7955 92.0944H98.0848C99.2545 92.0945 100.377 91.6333 101.209 90.811C102.04 89.9886 102.514 88.8714 102.527 87.7019C102.577 86.7708 102.577 85.8377 102.527 84.9066C102.455 82.886 101.806 80.9283 100.656 79.2652C99.5059 77.6021 97.9034 76.3034 96.0383 75.5226C95.5504 75.3725 95.0288 75.3725 94.5409 75.5226C92.731 76.0454 90.8101 76.0454 89.0003 75.5226C88.4692 75.3235 87.8841 75.3235 87.3531 75.5226C86 76.0457 84.7842 76.8705 83.7981 77.9345C82.812 78.9984 82.0816 80.2733 81.6627 81.6622C81.225 83.544 81.0073 85.4703 81.014 87.4024C80.9776 88.0149 81.0714 88.6282 81.2894 89.2019C81.5073 89.7755 81.8442 90.2964 82.2781 90.7303C82.712 91.1642 83.233 91.5012 83.8066 91.7192C84.3802 91.9371 84.9935 92.0309 85.6061 91.9946L91.7955 92.0944ZM21.565 66.9871C21.565 65.5574 20.9969 64.1862 19.986 63.1752C18.975 62.1643 17.6038 61.5963 16.1741 61.5963C14.7443 61.5963 13.3732 62.1643 12.3622 63.1752C11.3512 64.1862 10.7833 65.5574 10.7833 66.9871C10.7833 68.4169 11.3512 69.788 12.3622 70.799C13.3732 71.81 14.7443 72.378 16.1741 72.378C17.6038 72.378 18.975 71.81 19.986 70.799C20.9969 69.788 21.565 68.4169 21.565 66.9871ZM97.1364 66.9871C97.1364 65.5574 96.5685 64.1862 95.5575 63.1752C94.5466 62.1643 93.1754 61.5963 91.7457 61.5963C90.3159 61.5963 88.9448 62.1643 87.9338 63.1752C86.9228 64.1862 86.3548 65.5574 86.3548 66.9871C86.3671 68.4091 86.9308 69.7708 87.9269 70.7856C88.9231 71.8004 90.2742 72.3891 91.6957 72.4278C92.4121 72.4345 93.1226 72.2984 93.7857 72.0273C94.4488 71.7562 95.0511 71.3557 95.5577 70.8492C96.0643 70.3426 96.4648 69.7402 96.7358 69.0771C97.0069 68.414 97.1431 67.7035 97.1364 66.9871Z" fill="#FCFCFC"/>
<path d="M54.1115 0.500173C55.5451 0.500207 56.9464 0.92601 58.1377 1.72353C59.329 2.52104 60.2565 3.65436 60.8028 4.97979C61.3491 6.30521 61.4895 7.76305 61.2062 9.16837C60.9228 10.5737 60.2286 11.8632 59.2114 12.8734C58.1942 13.8836 56.8999 14.5689 55.4926 14.8426C54.0854 15.1162 52.6286 14.9657 51.3069 14.4102C49.9853 13.8548 48.8584 12.9193 48.0692 11.7225C47.2799 10.5258 46.8638 9.12153 46.8737 7.68796C46.8737 6.73984 47.0613 5.80112 47.4256 4.92579C47.7899 4.05045 48.3238 3.25587 48.9966 2.58776C49.6693 1.91966 50.4676 1.39121 51.3455 1.03294C52.2233 0.674673 53.1634 0.493589 54.1115 0.500173ZM54.1115 11.2819C54.581 11.2885 55.0473 11.2017 55.483 11.0266C55.9188 10.8514 56.3153 10.5915 56.6497 10.2617C56.9841 9.93196 57.2496 9.53903 57.4309 9.10577C57.6121 8.67251 57.7054 8.20756 57.7054 7.73793C57.7054 6.78477 57.3268 5.87061 56.6528 5.19663C55.9788 4.52264 55.0646 4.14403 54.1115 4.14403C53.1583 4.14403 52.2441 4.52264 51.5702 5.19663C50.8962 5.87061 50.5176 6.78477 50.5176 7.73793C50.5307 8.68241 50.9151 9.58371 51.5877 10.2469C52.2602 10.9102 53.1669 11.282 54.1115 11.2819Z" fill="#FCFCFC"/>
<path d="M107.918 29.3012C107.918 30.7229 107.496 32.1125 106.706 33.2946C105.916 34.4766 104.794 35.3978 103.48 35.9419C102.167 36.4859 100.722 36.6283 99.3276 36.351C97.9333 36.0736 96.6525 35.389 95.6473 34.3838C94.6421 33.3785 93.9575 32.0978 93.6801 30.7035C93.4028 29.3092 93.5451 27.864 94.0891 26.5506C94.6331 25.2373 95.5544 24.1147 96.7364 23.3249C97.9185 22.535 99.3081 22.1135 100.73 22.1135C101.676 22.1068 102.613 22.2882 103.488 22.6471C104.363 23.0059 105.158 23.5352 105.827 24.2039C106.496 24.8727 107.025 25.6677 107.384 26.5428C107.743 27.4179 107.924 28.3555 107.918 29.3012ZM104.324 29.3012C104.33 28.8317 104.243 28.3654 104.068 27.9297C103.893 27.4939 103.633 27.0974 103.303 26.763C102.974 26.4286 102.581 26.1631 102.147 25.9818C101.714 25.8006 101.249 25.7073 100.78 25.7074C100.067 25.6975 99.3671 25.8998 98.7696 26.2886C98.172 26.6775 97.7037 27.2352 97.4241 27.891C97.1444 28.5468 97.0659 29.2709 97.1989 29.9713C97.3319 30.6717 97.6702 31.3167 98.1708 31.8243C98.6713 32.332 99.3117 32.6793 100.01 32.822C100.709 32.9648 101.434 32.8965 102.093 32.6261C102.753 32.3556 103.317 31.895 103.714 31.303C104.111 30.711 104.324 30.0142 104.324 29.3012Z" fill="#FCFCFC"/>
<path d="M7.13785 36.4887C5.71841 36.4788 4.33369 36.0489 3.15825 35.2531C1.98281 34.4573 1.06925 33.3313 0.532865 32.0171C-0.0035148 30.7029 -0.138679 29.2593 0.144274 27.8683C0.427227 26.4773 1.11569 25.2012 2.12287 24.201C3.13006 23.2007 4.41084 22.5211 5.80375 22.2478C7.19666 21.9745 8.63935 22.1196 9.94984 22.6651C11.2603 23.2106 12.38 24.1319 13.1676 25.3128C13.9553 26.4937 14.3756 27.8814 14.3756 29.3009C14.3756 30.249 14.1881 31.1878 13.8237 32.0631C13.4594 32.9384 12.9255 33.733 12.2527 34.4011C11.58 35.0692 10.7817 35.5976 9.90384 35.9559C9.026 36.3142 8.08595 36.4952 7.13785 36.4887ZM7.13785 25.707C6.425 25.6971 5.72541 25.8994 5.12787 26.2883C4.53032 26.6771 4.06188 27.2348 3.78219 27.8906C3.50251 28.5464 3.42422 29.2705 3.5572 29.9709C3.69019 30.6713 4.02834 31.3163 4.52891 31.824C5.02948 32.3316 5.66981 32.6789 6.36828 32.8216C7.06676 32.9644 7.79192 32.8962 8.45153 32.6257C9.11114 32.3552 9.67531 31.8947 10.0725 31.3026C10.4696 30.7106 10.6817 30.0138 10.6818 29.3009C10.6826 28.3731 10.3246 27.481 9.68265 26.8111C9.04072 26.1413 8.16459 25.7456 7.23762 25.707H7.13785Z" fill="#FCFCFC"/>
<path d="M18.2234 26.0563C17.6984 25.631 17.2437 25.1256 16.8758 24.5589C16.699 24.2209 16.6628 23.8268 16.7749 23.4623C16.8871 23.0978 17.1386 22.7923 17.4747 22.6122C18.0238 22.2628 18.6726 22.0132 19.2716 21.7137L41.0847 11.7306L41.7834 11.3813C42.2282 11.1716 42.7372 11.1428 43.2028 11.3012C43.6684 11.4595 44.0543 11.7924 44.2791 12.2298C44.3771 12.4556 44.4289 12.6987 44.4316 12.9448C44.4343 13.1909 44.3878 13.435 44.2948 13.6629C44.2018 13.8907 44.0642 14.0977 43.8901 14.2716C43.716 14.4456 43.5087 14.583 43.2808 14.6757L37.7902 17.2213L19.9705 25.4074L18.2234 26.0563Z" fill="#FCFCFC"/>
<path d="M91.1911 23.5118C91.1911 25.2589 89.9932 26.2073 88.7453 25.7081C87.4974 25.209 85.9501 24.4603 84.5524 23.8114L65.1354 14.8267C64.5863 14.5771 63.8875 14.1778 63.7377 13.6786C63.6436 13.349 63.6262 13.0022 63.6867 12.6647C63.7473 12.3273 63.8843 12.0082 64.0872 11.7319C64.3867 11.3825 65.2353 11.3825 65.8342 11.2827C66.4332 11.1828 66.2835 11.2827 66.4832 11.2827L89.7935 22.0145C90.3578 22.4116 90.8337 22.9214 91.1911 23.5118Z" fill="#FCFCFC"/>
<path d="M94.9368 55.0589C93.3395 55.0589 92.3912 54.1105 92.6907 52.9625C93.739 48.8694 94.7871 44.7764 95.9352 40.6833C95.993 40.4663 96.0933 40.2629 96.2303 40.0849C96.3672 39.9069 96.5381 39.7579 96.7331 39.6464C96.9281 39.535 97.1433 39.4634 97.3662 39.4358C97.5891 39.4081 97.8152 39.425 98.0315 39.4854C98.2631 39.5313 98.4826 39.6248 98.6759 39.7603C98.8692 39.8957 99.0322 40.07 99.1544 40.272C99.2765 40.474 99.3551 40.6993 99.3853 40.9335C99.4154 41.1676 99.3964 41.4054 99.3294 41.6317C98.3311 45.6749 97.2829 49.7679 96.1349 53.7611C95.9352 54.3601 95.2363 54.8093 94.9368 55.0589Z" fill="#FCFCFC"/>
<path d="M10.3812 39.4334C10.7839 39.4271 11.1758 39.5642 11.4867 39.8202C11.7976 40.0763 12.0073 40.4346 12.0783 40.831L15.223 52.7607C15.282 52.9902 15.2953 53.229 15.262 53.4635C15.2287 53.698 15.1494 53.9237 15.0289 54.1277C14.9084 54.3316 14.749 54.5098 14.5596 54.6521C14.3702 54.7944 14.1547 54.898 13.9253 54.957C13.6959 55.016 13.457 55.0292 13.2225 54.9959C12.9879 54.9626 12.7622 54.8835 12.5583 54.763C12.3544 54.6425 12.1761 54.483 12.0338 54.2936C11.8915 54.1042 11.788 53.8887 11.729 53.6592C10.6808 49.716 9.63261 45.7727 8.63431 41.8294C8.53683 41.5541 8.50791 41.2592 8.55007 40.9702C8.59223 40.6812 8.70414 40.4069 8.87621 40.1709C9.04827 39.9349 9.27521 39.7444 9.53747 39.6159C9.79972 39.4874 10.0893 39.4248 10.3812 39.4334Z" fill="#FCFCFC"/>
<path d="M64.0875 74.2754C64.986 74.2754 65.8845 74.2754 66.783 74.2754C67.2596 74.2754 67.7166 74.4647 68.0536 74.8017C68.3906 75.1387 68.5799 75.5958 68.5799 76.0723C68.5799 76.5489 68.3906 77.0059 68.0536 77.3429C67.7166 77.6799 67.2596 77.8692 66.783 77.8692H61.3921C60.9155 77.8692 60.4585 77.6799 60.1215 77.3429C59.7845 77.0059 59.5952 76.5489 59.5952 76.0723C59.5952 75.5958 59.7845 75.1387 60.1215 74.8017C60.4585 74.4647 60.9155 74.2754 61.3921 74.2754H64.0875Z" fill="#FCFCFC"/>
</svg>
